<svg width="418" height="597" version="1.1" xmlns="http://www.w3.org/2000/svg" desc="Created with imagetracer.js version 1.2.6" ><path fill="rgb(0,0,0)" stroke="rgb(0,0,0)" stroke-width="1" opacity="0" d="M 0 0 L 418 0 L 418 597 L 0 597 L 0 0 Z M 96 143 L 85 148 L 80 156 L 80 159 L 76 167 L 73 181 L 70 187 Q 70 195 66 201 L 66 206 L 63 212 L 62 220 L 52 253 L 52 257 L 31 316 L 31 327 L 25 328 L 18 332 L 15 339 Q 14 347 17 351 L 23 356 L 30 358 L 61 360 L 71 363 L 78 363 L 92 367 L 98 367 L 106 370 L 111 370 L 122 374 L 127 374 L 134 377 L 139 377 L 149 381 L 164 384 L 173 388 L 187 391 L 226 405 L 229 405 L 234 408 L 251 413 L 264 419 L 268 419 L 270 421 L 278 423 L 283 426 L 286 426 L 291 429 Q 298 429 303 433 L 307 433 L 313 436 Q 318 435 320 437 Q 321 435 327 436 L 334 433 L 342 425 L 348 407 L 349 395 L 352 382 L 352 374 L 356 355 L 356 347 L 359 337 L 359 329 L 362 320 L 363 308 L 366 299 L 366 292 L 369 284 L 370 275 L 373 267 L 373 262 L 376 254 L 381 230 Q 382 221 379 216 Q 375 209 367 207 Q 355 207 350 213 L 324 240 L 320 243 Q 321 245 319 244 L 317 247 L 313 250 Q 314 252 312 251 L 309 255 Q 306 254 307 257 L 305 258 L 303 261 L 299 264 Q 300 266 298 265 L 296 268 L 266 293 L 264 292 Q 265 285 262 283 L 261 265 L 260 264 L 259 239 L 258 238 L 258 207 L 254 198 Q 251 193 245 191 Q 235 190 231 193 L 219 207 L 191 255 L 181 269 L 181 271 L 171 284 L 164 275 L 150 248 L 129 197 L 129 194 L 122 177 L 118 163 L 112 151 Q 108 143 96 143 Z M 61 387 L 53 391 L 46 399 L 46 404 L 49 410 L 56 415 L 67 419 L 75 419 L 92 423 L 98 423 L 140 433 L 146 433 L 171 440 L 178 440 L 203 447 L 208 447 L 215 450 L 224 451 L 228 453 L 239 455 L 242 457 L 261 461 L 270 465 L 274 465 L 280 468 L 284 468 Q 289 472 299 473 L 302 475 L 306 475 L 315 479 Q 326 481 331 475 L 335 469 Q 337 460 333 456 L 328 450 L 325 450 L 307 443 L 303 443 L 285 436 L 281 436 L 261 429 L 257 429 L 251 426 L 247 426 L 211 415 L 207 415 L 203 413 L 195 412 L 170 405 L 165 405 L 153 401 L 147 401 L 137 398 L 130 398 L 117 394 L 109 394 L 104 392 L 91 391 L 73 387 L 61 387 Z " /><path fill="rgb(0,0,0)" stroke="rgb(0,0,0)" stroke-width="1" opacity="0" d="M 98.5 203 L 111 236.5 L 129 275.5 L 143 299.5 L 157.5 315 L 163.5 318 L 174.5 319 Q 185 316.5 191 309.5 L 215 275.5 L 227.5 253 L 229 256.5 L 230 277.5 L 237 310.5 L 240 316.5 L 247.5 325 L 253.5 328 L 267.5 328 L 276.5 324 L 296 310 Q 294.9 307.3 297.5 308 L 303 304 L 304.5 301 L 339.5 268 L 339 269.5 L 337 284.5 L 334 292.5 L 334 299.5 Q 330.2 308.2 330 320.5 L 327 330.5 L 327 338.5 L 324 348.5 L 324 356.5 L 320 375.5 L 320 384.5 L 318 390.5 L 317 402.5 L 315.5 404 L 234.5 374 L 197.5 363 L 188.5 359 L 184.5 359 L 178.5 356 L 174.5 356 L 157.5 350 L 149.5 349 L 139.5 345 L 134.5 345 L 126.5 342 L 121.5 342 L 110.5 338 L 104.5 338 L 100.5 336 L 89.5 335 L 80.5 332 L 67.5 331 L 60 329 L 77 281.5 L 77 277.5 L 80 271.5 L 98.5 203 Z " /><path fill="rgb(222,119,38)" stroke="rgb(222,119,38)" stroke-width="1" opacity="0.7098039215686275" d="M 93.5 145 L 97 145.5 L 87 149 L 80.5 161 L 80 158.5 L 87.5 148 L 93.5 145 Z " /><path fill="rgb(222,119,38)" stroke="rgb(222,119,38)" stroke-width="1" opacity="0.7098039215686275" d="M 98.5 145 L 104.5 146 L 112 152.5 L 126 190.5 L 125 190.5 L 114 158.5 L 107.5 149 Q 104.5 146 98.5 146 L 98.5 145 Z " /><path fill="rgb(222,119,38)" stroke="rgb(222,119,38)" stroke-width="1" opacity="0.7098039215686275" d="M 79.5 162 L 80 163.5 L 67.5 205 L 67 202.5 L 79.5 162 Z " /><path fill="rgb(222,119,38)" stroke="rgb(222,119,38)" stroke-width="1" opacity="0.7098039215686275" d="M 126.5 192 L 147 243.5 L 161 271.5 L 170.5 285 L 174 282.5 Q 199.2 245.7 221 205.5 L 231.5 194 Q 235.2 190.7 243.5 192 L 243.5 193 L 235.5 193 L 225 201.5 L 191 258.5 L 173 286 Q 169.2 287 168 284.5 Q 142 242.6 126.5 192 Z " /><path fill="rgb(222,119,38)" stroke="rgb(222,119,38)" stroke-width="1" opacity="0.7098039215686275" d="M 245.5 193 L 253 198.5 L 257 209.5 L 257 231.5 L 256 231.5 L 256 209.5 L 255 204.5 L 249.5 196 Q 244.8 195.2 245.5 193 Z " /><path fill="rgb(222,119,38)" stroke="rgb(222,119,38)" stroke-width="1" opacity="0.7098039215686275" d="M 97 200 Q 100.8 198.5 100 201.5 L 101 203.5 L 100 203.5 L 98.5 201 L 97 202.5 L 94.5 213 L 94 209.5 L 97 200 Z " /><path fill="rgb(222,119,38)" stroke="rgb(222,119,38)" stroke-width="1" opacity="0.7098039215686275" d="M 101.5 205 L 108 222.5 L 107 222.5 L 101 207.5 L 101.5 205 Z " /><path fill="rgb(222,119,38)" stroke="rgb(222,119,38)" stroke-width="1" opacity="0.7098039215686275" d="M 66.5 206 L 67 208.5 L 55 249.5 L 55 253.5 L 50.5 266 L 50 263.5 L 53 256.5 L 66.5 206 Z " /><path fill="rgb(222,119,38)" stroke="rgb(222,119,38)" stroke-width="1" opacity="0.7098039215686275" d="M 358.5 209 L 362 209.5 Q 353.8 210.8 349.5 216 L 324 241.5 L 300.5 266 L 297.5 268 Q 289.6 278 279 284 Q 280.1 286.7 277.5 286 Q 272.6 292.6 264.5 296 Q 260.8 291.7 261 283.5 L 262 283.5 L 264 295 L 272.5 290 L 304 261.5 L 304 260 L 306 260 L 306 258 L 308 258 Q 306.9 255.3 309.5 256 L 311 253 Q 313.7 254.1 313 251.5 L 350.5 214 L 358.5 209 Z " /><path fill="rgb(222,119,38)" stroke="rgb(222,119,38)" stroke-width="1" opacity="0.7098039215686275" d="M 366.5 209 L 369.5 209 L 376 213.5 L 379 219.5 L 378 219.5 L 372.5 212 L 366.5 210 L 366.5 209 Z " /><path fill="rgb(222,119,38)" stroke="rgb(222,119,38)" stroke-width="1" opacity="0.7098039215686275" d="M 93.5 214 L 94 216.5 L 90.5 227 L 90 224.5 L 93.5 214 Z " /><path fill="rgb(222,119,38)" stroke="rgb(222,119,38)" stroke-width="1" opacity="0.7098039215686275" d="M 379.5 221 L 380 229.5 L 379 229.5 L 379.5 221 Z " /><path fill="rgb(222,119,38)" stroke="rgb(222,119,38)" stroke-width="1" opacity="0.7098039215686275" d="M 108.5 224 Q 121.3 258.7 139 288.5 L 137 287.5 L 117 247.5 L 108 225.5 L 108.5 224 Z " /><path fill="rgb(222,119,38)" stroke="rgb(222,119,38)" stroke-width="1" opacity="0.7098039215686275" d="M 89.5 228 L 90 231.5 L 87.5 239 L 87 235.5 L 89.5 228 Z " /><path fill="rgb(222,119,38)" stroke="rgb(222,119,38)" stroke-width="1" opacity="0.7098039215686275" d="M 378.5 231 L 379 235.5 L 376.5 244 L 376 240.5 L 378.5 231 Z " /><path fill="rgb(222,119,38)" stroke="rgb(222,119,38)" stroke-width="1" opacity="0.7098039215686275" d="M 257.5 234 L 258 251.5 L 259 252.5 L 259 264.5 L 260 265.5 L 261 280.5 L 260 280.5 L 259 266.5 L 258 265.5 L 258 252.5 L 257 251.5 L 257.5 234 Z " /><path fill="rgb(222,119,38)" stroke="rgb(222,119,38)" stroke-width="1" opacity="0.7098039215686275" d="M 86.5 240 L 87 242.5 L 83.5 253 L 83 250.5 L 86.5 240 Z " /><path fill="rgb(222,119,38)" stroke="rgb(222,119,38)" stroke-width="1" opacity="0.7098039215686275" d="M 375.5 245 L 376 248.5 L 373.5 256 L 373 253.5 L 375.5 245 Z " /><path fill="rgb(222,119,38)" stroke="rgb(222,119,38)" stroke-width="1" opacity="0.7098039215686275" d="M 227.5 250 L 230 250 L 230 255.5 L 229 255.5 Q 230.7 249.7 227 251 Q 210.5 284.7 186.5 312 L 175.5 318 L 166.5 318 Q 155.6 314.9 150 306.5 L 139 290.5 L 141 291.5 Q 148 305 159.5 314 L 167.5 317 L 175.5 317 Q 186.8 312.8 193 303.5 Q 211.9 278.4 227.5 250 Z " /><path fill="rgb(222,119,38)" stroke="rgb(222,119,38)" stroke-width="1" opacity="0.7098039215686275" d="M 82.5 254 L 83 256.5 L 78 274.5 L 66.5 306 L 66 304.5 L 77 274.5 L 82.5 254 Z " /><path fill="rgb(222,119,38)" stroke="rgb(222,119,38)" stroke-width="1" opacity="0.7098039215686275" d="M 230.5 257 L 231 266.5 L 230 266.5 L 230.5 257 Z " /><path fill="rgb(222,119,38)" stroke="rgb(222,119,38)" stroke-width="1" opacity="0.7098039215686275" d="M 372.5 257 L 373 260.5 L 366.5 287 L 366 283.5 L 372.5 257 Z " /><path fill="rgb(222,119,38)" stroke="rgb(222,119,38)" stroke-width="1" opacity="0.7098039215686275" d="M 339.5 265 Q 344.1 263.6 342 269.5 L 338.5 284 L 338 280.5 L 341 266.5 L 339.5 267 L 336.5 269 L 335 272 L 331 274.5 Q 331.8 276.8 329.5 276 L 311.5 294 L 310 294 Q 311.1 296.7 308.5 296 Q 295.6 310.1 279.5 321 L 266.5 327 L 257.5 328 Q 247.6 325.9 243 318.5 Q 238.1 313.4 237 304.5 L 238 304.5 Q 240.5 316.5 248.5 323 L 257.5 327 L 261.5 327 Q 273.1 325.1 280.5 319 L 313 292 Q 311.9 289.3 314.5 290 L 339.5 265 Z " /><path fill="rgb(222,119,38)" stroke="rgb(222,119,38)" stroke-width="1" opacity="0.7098039215686275" d="M 231.5 268 L 233 281.5 L 232 281.5 L 231.5 268 Z " /><path fill="rgb(222,119,38)" stroke="rgb(222,119,38)" stroke-width="1" opacity="0.7098039215686275" d="M 48.5 270 L 49 272.5 L 39 298.5 L 33 316.5 L 32.5 322 L 32 316.5 L 48.5 270 Z " /><path fill="rgb(222,119,38)" stroke="rgb(222,119,38)" stroke-width="1" opacity="0.7098039215686275" d="M 233.5 283 L 234 288.5 L 233 288.5 L 233.5 283 Z " /><path fill="rgb(222,119,38)" stroke="rgb(222,119,38)" stroke-width="1" opacity="0.7098039215686275" d="M 337.5 285 L 338 288.5 L 337 288.5 L 337.5 285 Z " /><path fill="rgb(222,119,38)" stroke="rgb(222,119,38)" stroke-width="1" opacity="0.7098039215686275" d="M 365.5 288 L 366 291.5 L 365 291.5 L 365.5 288 Z " /><path fill="rgb(222,119,38)" stroke="rgb(222,119,38)" stroke-width="1" opacity="0.7098039215686275" d="M 234.5 290 L 237 302.5 L 236 302.5 L 234 294.5 L 234.5 290 Z " /><path fill="rgb(222,119,38)" stroke="rgb(222,119,38)" stroke-width="1" opacity="0.7098039215686275" d="M 336.5 290 L 337 294.5 L 331.5 320 L 331 315.5 L 336.5 290 Z " /><path fill="rgb(222,119,38)" stroke="rgb(222,119,38)" stroke-width="1" opacity="0.7098039215686275" d="M 364.5 293 L 365 296.5 L 359.5 323 L 359 318.5 L 364.5 293 Z " /><path fill="rgb(222,119,38)" stroke="rgb(222,119,38)" stroke-width="1" opacity="0.7098039215686275" d="M 65.5 307 L 66 308.5 L 60.5 323 L 60 321.5 L 65.5 307 Z " /><path fill="rgb(222,119,38)" stroke="rgb(222,119,38)" stroke-width="1" opacity="0.7098039215686275" d="M 330.5 321 L 331 326.5 Q 328.3 330.8 328.5 338 L 328 331.5 L 330.5 321 Z " /><path fill="rgb(222,119,38)" stroke="rgb(222,119,38)" stroke-width="1" opacity="0.7098039215686275" d="M 59.5 324 L 60 325.5 L 59 330 L 61 330.5 L 59.5 331 Q 57.3 330.3 58 326.5 L 59.5 324 Z " /><path fill="rgb(222,119,38)" stroke="rgb(222,119,38)" stroke-width="1" opacity="0.7098039215686275" d="M 358.5 324 L 359 327.5 L 358 327.5 L 358.5 324 Z " /><path fill="rgb(222,119,38)" stroke="rgb(222,119,38)" stroke-width="1" opacity="0.7098039215686275" d="M 31.5 327 L 32 329 L 23.5 331 L 18 336.5 L 17 345.5 L 23.5 354 L 28 355.5 L 25.5 356 L 19 351.5 Q 15 348 16 339.5 L 20 332 L 31.5 327 Z " /><path fill="rgb(222,119,38)" stroke="rgb(222,119,38)" stroke-width="1" opacity="0.7098039215686275" d="M 357.5 329 L 358 335.5 L 356 340.5 L 354.5 352 L 354 346.5 L 357.5 329 Z " /><path fill="rgb(222,119,38)" stroke="rgb(222,119,38)" stroke-width="1" opacity="0.7098039215686275" d="M 62.5 331 L 67 331.5 L 62.5 332 L 62.5 331 Z " /><path fill="rgb(222,119,38)" stroke="rgb(222,119,38)" stroke-width="1" opacity="0.7098039215686275" d="M 68.5 332 L 84 334.5 L 79.5 335 L 73.5 333 L 68.5 333 L 68.5 332 Z " /><path fill="rgb(222,119,38)" stroke="rgb(222,119,38)" stroke-width="1" opacity="0.7098039215686275" d="M 85.5 335 L 104 338.5 L 100.5 339 L 85.5 336 L 85.5 335 Z " /><path fill="rgb(222,119,38)" stroke="rgb(222,119,38)" stroke-width="1" opacity="0.7098039215686275" d="M 105.5 339 L 117 341.5 L 113.5 342 L 105.5 340 L 105.5 339 Z " /><path fill="rgb(222,119,38)" stroke="rgb(222,119,38)" stroke-width="1" opacity="0.7098039215686275" d="M 327.5 339 L 328 343.5 L 324.5 362 L 324 357.5 L 327.5 339 Z " /><path fill="rgb(222,119,38)" stroke="rgb(222,119,38)" stroke-width="1" opacity="0.7098039215686275" d="M 118.5 342 L 133 345.5 L 130.5 346 L 118.5 343 L 118.5 342 Z " /><path fill="rgb(222,119,38)" stroke="rgb(222,119,38)" stroke-width="1" opacity="0.7098039215686275" d="M 134.5 346 L 160 352.5 L 157.5 353 L 137.5 348 L 134.5 347 L 134.5 346 Z " /><path fill="rgb(222,119,38)" stroke="rgb(222,119,38)" stroke-width="1" opacity="0.7098039215686275" d="M 161.5 353 L 170 355.5 L 167.5 356 L 161.5 354 L 161.5 353 Z " /><path fill="rgb(222,119,38)" stroke="rgb(222,119,38)" stroke-width="1" opacity="0.7098039215686275" d="M 353.5 353 L 354 359.5 L 352.5 366 L 352 360.5 L 353.5 353 Z " /><path fill="rgb(222,119,38)" stroke="rgb(222,119,38)" stroke-width="1" opacity="0.7098039215686275" d="M 29.5 356 L 52.5 357 L 81 362.5 L 76.5 363 L 58.5 359 L 41.5 358 L 40.5 357 L 29.5 357 L 29.5 356 Z " /><path fill="rgb(222,119,38)" stroke="rgb(222,119,38)" stroke-width="1" opacity="0.7098039215686275" d="M 171.5 356 L 177 357.5 L 174.5 358 L 171.5 357 L 171.5 356 Z " /><path fill="rgb(222,119,38)" stroke="rgb(222,119,38)" stroke-width="1" opacity="0.7098039215686275" d="M 178.5 358 L 190 361.5 L 187.5 362 L 178.5 359 L 178.5 358 Z " /><path fill="rgb(222,119,38)" stroke="rgb(222,119,38)" stroke-width="1" opacity="0.7098039215686275" d="M 191.5 362 L 203 365.5 L 200.5 366 L 191.5 363 L 191.5 362 Z " /><path fill="rgb(222,119,38)" stroke="rgb(222,119,38)" stroke-width="1" opacity="0.7098039215686275" d="M 83.5 363 L 114 369.5 L 109.5 370 L 105.5 368 L 83.5 364 L 83.5 363 Z " /><path fill="rgb(222,119,38)" stroke="rgb(222,119,38)" stroke-width="1" opacity="0.7098039215686275" d="M 323.5 364 L 324 369.5 L 321.5 384 L 321 377.5 L 323.5 364 Z " /><path fill="rgb(222,119,38)" stroke="rgb(222,119,38)" stroke-width="1" opacity="0.7098039215686275" d="M 207.5 367 L 233 375.5 L 231.5 376 L 212.5 369 L 209.5 369 L 207.5 367 Z " /><path fill="rgb(222,119,38)" stroke="rgb(222,119,38)" stroke-width="1" opacity="0.7098039215686275" d="M 351.5 367 L 352 373.5 L 351 374.5 L 348.5 394 L 348 388.5 L 349 387.5 L 349 379.5 L 351.5 367 Z " /><path fill="rgb(222,119,38)" stroke="rgb(222,119,38)" stroke-width="1" opacity="0.7098039215686275" d="M 115.5 370 L 130 373.5 L 126.5 374 L 115.5 371 L 115.5 370 Z " /><path fill="rgb(222,119,38)" stroke="rgb(222,119,38)" stroke-width="1" opacity="0.7098039215686275" d="M 131.5 374 L 166 383.5 L 163.5 384 L 152.5 380 L 134.5 376 L 131.5 375 L 131.5 374 Z " /><path fill="rgb(222,119,38)" stroke="rgb(222,119,38)" stroke-width="1" opacity="0.7098039215686275" d="M 240.5 378 L 247 380.5 L 245.5 381 L 240.5 379 L 240.5 378 Z " /><path fill="rgb(222,119,38)" stroke="rgb(222,119,38)" stroke-width="1" opacity="0.7098039215686275" d="M 248.5 381 L 256 383.5 L 253.5 384 L 248.5 382 L 248.5 381 Z " /><path fill="rgb(222,119,38)" stroke="rgb(222,119,38)" stroke-width="1" opacity="0.7098039215686275" d="M 167.5 384 L 189 390.5 L 186.5 391 L 167.5 385 L 167.5 384 Z " /><path fill="rgb(222,119,38)" stroke="rgb(222,119,38)" stroke-width="1" opacity="0.7098039215686275" d="M 257.5 384 L 302 400.5 L 299.5 401 L 261.5 387 L 257.5 385 L 257.5 384 Z " /><path fill="rgb(222,119,38)" stroke="rgb(222,119,38)" stroke-width="1" opacity="0.7098039215686275" d="M 320.5 385 L 321 390.5 L 319.5 396 L 319 391.5 L 320.5 385 Z " /><path fill="rgb(222,119,38)" stroke="rgb(222,119,38)" stroke-width="1" opacity="0.7098039215686275" d="M 63.5 388 L 84 390.5 L 77.5 391 L 76.5 390 L 64.5 389 L 54.5 392 L 49 397.5 L 48 402.5 L 54.5 412 L 63.5 416 L 80 418.5 L 72.5 419 L 59.5 416 L 49 407.5 L 47 399.5 L 50 394 Q 54.9 389.6 63.5 388 Z " /><path fill="rgb(222,119,38)" stroke="rgb(222,119,38)" stroke-width="1" opacity="0.7098039215686275" d="M 85.5 391 L 96 392.5 L 89.5 393 L 85.5 392 L 85.5 391 Z " /><path fill="rgb(222,119,38)" stroke="rgb(222,119,38)" stroke-width="1" opacity="0.7098039215686275" d="M 190.5 391 L 228.5 403 L 288 425.5 L 285.5 426 L 222.5 402 L 192.5 393 L 190.5 391 Z " /><path fill="rgb(222,119,38)" stroke="rgb(222,119,38)" stroke-width="1" opacity="0.7098039215686275" d="M 97.5 393 L 108 394.5 L 103.5 395 Q 102.2 392.8 97.5 394 L 97.5 393 Z " /><path fill="rgb(222,119,38)" stroke="rgb(222,119,38)" stroke-width="1" opacity="0.7098039215686275" d="M 109.5 395 L 125 397.5 L 120.5 398 L 109.5 396 L 109.5 395 Z " /><path fill="rgb(222,119,38)" stroke="rgb(222,119,38)" stroke-width="1" opacity="0.7098039215686275" d="M 347.5 395 L 348 400.5 L 344 417.5 L 340 426 Q 337.3 424.9 338 427.5 Q 333.3 432.8 325.5 435 L 313.5 435 L 289 426.5 L 290.5 426 L 313.5 434 L 325.5 434 Q 335.3 431.3 340 423.5 L 344 413.5 L 347.5 395 Z " /><path fill="rgb(222,119,38)" stroke="rgb(222,119,38)" stroke-width="1" opacity="0.7098039215686275" d="M 318.5 397 L 319 401.5 L 316.5 406 L 313.5 406 L 303 401.5 L 304.5 401 L 313.5 405 L 317 405 L 318.5 397 Z " /><path fill="rgb(222,119,38)" stroke="rgb(222,119,38)" stroke-width="1" opacity="0.7098039215686275" d="M 126.5 398 L 145 401.5 L 141.5 402 L 126.5 399 L 126.5 398 Z " /><path fill="rgb(222,119,38)" stroke="rgb(222,119,38)" stroke-width="1" opacity="0.7098039215686275" d="M 146.5 402 L 160 404.5 L 155.5 405 Q 152.6 402.4 146.5 403 L 146.5 402 Z " /><path fill="rgb(222,119,38)" stroke="rgb(222,119,38)" stroke-width="1" opacity="0.7098039215686275" d="M 161.5 405 L 177 408.5 L 174.5 409 L 161.5 406 L 161.5 405 Z " /><path fill="rgb(222,119,38)" stroke="rgb(222,119,38)" stroke-width="1" opacity="0.7098039215686275" d="M 178.5 409 Q 206.3 414.2 231 422.5 L 228.5 423 L 216.5 419 L 212.5 419 L 209.5 417 L 178.5 410 L 178.5 409 Z " /><path fill="rgb(222,119,38)" stroke="rgb(222,119,38)" stroke-width="1" opacity="0.7098039215686275" d="M 81.5 419 L 86.5 419 L 111.5 425 L 126.5 427 L 162 435.5 L 157.5 436 L 116.5 426 L 111.5 426 L 106.5 424 L 81.5 420 L 81.5 419 Z " /><path fill="rgb(222,119,38)" stroke="rgb(222,119,38)" stroke-width="1" opacity="0.7098039215686275" d="M 232.5 423 L 253.5 428 L 256.5 430 Q 266.3 430.7 273 434.5 L 270.5 435 L 249.5 428 L 238.5 426 L 232.5 424 L 232.5 423 Z " /><path fill="rgb(222,119,38)" stroke="rgb(222,119,38)" stroke-width="1" opacity="0.7098039215686275" d="M 274.5 435 L 280 436.5 L 277.5 437 L 274.5 436 L 274.5 435 Z " /><path fill="rgb(222,119,38)" stroke="rgb(222,119,38)" stroke-width="1" opacity="0.7098039215686275" d="M 163.5 436 L 180 439.5 L 175.5 440 L 163.5 437 L 163.5 436 Z " /><path fill="rgb(222,119,38)" stroke="rgb(222,119,38)" stroke-width="1" opacity="0.7098039215686275" d="M 281.5 437 L 290 439.5 L 287.5 440 L 281.5 438 L 281.5 437 Z " /><path fill="rgb(222,119,38)" stroke="rgb(222,119,38)" stroke-width="1" opacity="0.7098039215686275" d="M 181.5 440 L 223 449.5 L 219.5 450 L 181.5 441 L 181.5 440 Z " /><path fill="rgb(222,119,38)" stroke="rgb(222,119,38)" stroke-width="1" opacity="0.7098039215686275" d="M 291.5 440 L 312 446.5 L 309.5 447 L 291.5 441 L 291.5 440 Z " /><path fill="rgb(222,119,38)" stroke="rgb(222,119,38)" stroke-width="1" opacity="0.7098039215686275" d="M 313.5 447 L 318 448.5 L 315.5 449 L 313.5 447 Z " /><path fill="rgb(222,119,38)" stroke="rgb(222,119,38)" stroke-width="1" opacity="0.7098039215686275" d="M 319.5 449 Q 327.1 449.9 331 454.5 Q 334.9 458.6 334 467.5 L 328.5 475 Q 324.7 479.2 315.5 478 L 287 468.5 L 288.5 468 L 311.5 476 L 322.5 477 L 330 473 L 333 466.5 L 333 461.5 Q 331.8 455.8 327.5 453 L 319.5 450 L 319.5 449 Z " /><path fill="rgb(222,119,38)" stroke="rgb(222,119,38)" stroke-width="1" opacity="0.7098039215686275" d="M 224.5 450 L 227 450.5 L 224.5 451 L 224.5 450 Z " /><path fill="rgb(222,119,38)" stroke="rgb(222,119,38)" stroke-width="1" opacity="0.7098039215686275" d="M 228.5 451 L 263 460.5 L 260.5 461 L 238.5 454 L 234.5 454 L 228.5 452 L 228.5 451 Z " /><path fill="rgb(222,119,38)" stroke="rgb(222,119,38)" stroke-width="1" opacity="0.7098039215686275" d="M 264.5 461 L 286 467.5 L 283.5 468 Q 276.5 464 266.5 463 L 264.5 461 Z " /><path fill="rgb(251,110,1)" stroke="rgb(251,110,1)" stroke-width="1" opacity="0.996078431372549" d="M 93.5 148 Q 104 146 107 151.5 Q 105.5 155.9 108.5 155 L 108.5 157 Q 112.5 156.5 113 159.5 L 112 163 Q 114.7 161.9 114 164.5 L 116 168.5 Q 113.5 170 117 171.5 L 116 181 Q 118.7 182.1 118 179.5 L 121 181.5 L 122 185.5 L 120 186 Q 119 189.8 121.5 191 Q 122.8 188.8 124 191.5 L 123 193.5 L 129 205.5 L 128 208.5 L 128.5 211 L 130.5 208 Q 132.3 219.2 138 226.5 Q 134.8 229 136 235 Q 139.7 236.3 138 230.5 L 139 230.5 L 140 237.5 L 139 240 Q 142.8 241.5 142 238.5 L 143 238.5 Q 142.1 244.9 146 246.5 L 146 253 Q 150.1 251.3 149 255.5 Q 145.3 257.3 148.5 259 L 150.5 256 L 160 276 Q 164 274.6 162 281.5 L 165 280.5 Q 165.3 285.3 168.5 287 L 174 286 L 175.5 289 L 177 281.5 Q 182 278.3 183 272 Q 185.7 273.1 185 270.5 Q 187.8 269.4 187 266 Q 190 267.3 189 263.5 L 190.5 261 Q 191.8 263.3 193 260.5 L 193.5 256 L 195.5 257 L 197 254.5 L 197 252.5 L 199 246 L 202 247.5 L 204 252 Q 207 250.8 206 254.5 L 208 255.5 L 208 251.5 L 204 243 Q 201.3 244.1 202 241.5 L 206 238.5 L 205 241.5 L 207.5 243 Q 210.2 241.8 208 240.5 L 209.5 237 L 214.5 238 L 220 233.5 L 218.5 231 L 209.5 236 L 208 232.5 L 209 230 L 213 227.5 L 215 224.5 L 215 222.5 L 215.5 220 L 219.5 222 L 220 216.5 L 219.5 215 L 222 213.5 L 223 206 Q 227.3 205 228.5 208 L 230 204 Q 226.7 205.3 228 200.5 L 232.5 197 L 242.5 195 L 250 199.5 L 253 203.5 L 253 206.5 L 252 207.5 L 252 215.5 L 253 216.5 L 253 224.5 L 252 228.5 L 255 234.5 L 255 250.5 L 257 255.5 L 256 256.5 L 256 266.5 L 258 271.5 L 256 272.5 L 258 273 L 257 278.5 L 257 280.5 L 260 287.5 L 258.5 290 L 262 292.5 L 265 298.5 L 264 301 L 268 302 L 268 299 Q 265 300 266 297 L 270 296 Q 268.2 291.1 274.5 293 L 278.5 288 L 282 289.5 L 282.5 296 L 285 293.5 L 286 284 L 284 283.5 L 285 281 Q 287.7 282.1 287 279.5 L 294 275.5 Q 293.5 270.5 297.5 270 L 300 268.5 L 301.5 266 L 304 264.5 L 305.5 262 L 310 261 L 310 257 L 311.5 257 L 317 253 L 317.5 251 L 320 255.5 L 320.5 257 L 323 252 Q 318.5 253.8 320 248.5 L 326 244.5 L 327.5 241 Q 329.8 241.8 329 239.5 L 330 239.5 Q 329 244 331.5 245 Q 334.5 245.9 333 241.5 L 331 237.5 L 334 236.5 L 337.5 230 Q 341.9 231.5 341 228.5 L 343.5 224 Q 347.9 225.5 347 222.5 L 347 220.5 Q 346.3 218.3 348.5 219 L 349.5 218 L 352 219.5 L 353.5 216 L 357 214.5 Q 356.3 212.3 358.5 213 L 366.5 211 L 371 213 L 370 216.5 L 374 219.5 Q 373.3 222.1 376 221 L 376.5 219 L 378 222.5 L 378 224.5 L 377 232.5 L 373 241.5 L 375 245.5 L 372.5 251 L 371.5 249 L 371 251.5 L 371 253.5 Q 371.7 259.2 369 261.5 L 369 263.5 L 369 267.5 L 366 274.5 L 366 276.5 L 364 283.5 L 364 291 Q 361.3 292.1 362 289.5 L 360 288.5 L 362 298.5 L 361 301 L 358 302.5 L 360 306.5 L 359 307.5 L 359 314 L 356 315.5 L 356 320.5 L 354 321 L 354 322.5 L 356 328.5 L 353 341.5 L 351 359.5 L 348 363.5 L 349 365.5 L 348 368 Q 343.1 366.4 345 372 L 348 372.5 L 348 381.5 L 348 383.5 L 346.5 389 L 346 380 L 343 381.5 Q 345.3 384.7 344 391.5 L 346 394.5 L 344.5 403 L 343.5 396 L 342 404 Q 346 402.6 344 409.5 L 339 417.5 L 341 418.5 L 336.5 425 L 330 429.5 Q 330.8 432.1 327.5 431 L 326.5 432 L 313.5 433 L 310 431 Q 311.8 426.5 306.5 428 L 302.5 426 L 301.5 429 L 296 428 L 295.5 425 L 294 425.5 Q 296.3 424.3 293.5 423 L 285.5 420 L 269.5 417 L 259.5 411 Q 253.5 411.5 251.5 408 L 245.5 408 L 237.5 404 L 234 405 Q 235.3 402 231.5 403 L 231.5 402 Q 233.8 402.8 233 400.5 L 231.5 401 Q 226.7 402.2 225.5 400 Q 224 402.5 222.5 399 Q 217.9 400.4 220 394.5 L 216.5 392 L 215.5 394 Q 218.5 393.2 217 397 L 208.5 396 L 204 392.5 L 206 392 Q 205 389 208 390 Q 206.9 392.7 209.5 392 L 211.5 392 L 215 391.5 L 206.5 388 L 204.5 390 L 193.5 391 L 193.5 390 Q 195.8 390.8 195 388.5 L 198 386.5 L 191.5 386 L 190.5 389 Q 188.2 385.8 181.5 387 L 177.5 384 L 169 383 L 167.5 380 L 157.5 378 L 155.5 379 L 144.5 374 L 141.5 375 L 141.5 374 Q 144.1 374.7 143 372 Q 140.7 374.6 134.5 374 L 126.5 369 L 123.5 370 Q 122 367.5 116.5 369 L 111.5 366 L 96.5 364 L 93.5 362 Q 84.5 363.5 80 360.5 L 83 360 Q 84.7 355.9 80.5 357 L 74.5 360 L 56.5 356 L 43.5 356 L 37.5 354 L 32.5 354 L 29.5 355 L 24 352.5 Q 24.8 350.3 22.5 351 L 18 343.5 Q 20 340 22 344.5 Q 21.3 347.1 24 346 L 25 340.5 L 22.5 339 Q 21.3 341.3 20 338.5 L 21.5 336 L 24 335.5 Q 21.5 334 25 332.5 Q 24.2 329.5 28 331 L 26 335.5 L 28.5 339 Q 30.8 338.3 30 334.5 L 30 332.5 Q 29.3 330.3 31.5 331 Q 32.8 333.2 34 330.5 Q 37 327.5 36 320.5 L 35 315.5 L 37 310 L 39 309.5 L 37 308.5 L 42.5 301 L 43 304.5 L 42 307.5 L 45.5 320 L 46 304.5 L 45 302.5 L 46 298 Q 42.3 299.4 44 293.5 L 47 287.5 L 46 285 L 48 284.5 L 47 282.5 L 52 278.5 Q 51 272.5 54 270.5 Q 51 269.5 52 264.5 L 54 263.5 Q 52.7 268.3 56 267 L 57 263.5 L 55 256.5 L 57.5 251 L 58 253 L 64 252 L 61.5 248 L 58 246.5 L 59 240 L 62 241.5 Q 61.3 244.1 64 243 Q 65 238.8 62 239.5 L 62 235 L 65 233.5 Q 66.8 227.2 64 225.5 L 65 220 Q 69 221.4 67 214.5 Q 69.2 213.3 68 208.5 L 69.5 207 L 71 208.5 Q 69.9 214.6 72.5 217 L 74 215.5 L 74 208 Q 71 209.3 72 205.5 Q 69.3 203.8 71 197.5 L 74.5 192 Q 77.3 192.6 76 186.5 L 75 184.5 L 77.5 179 Q 78.8 181.3 80 178.5 L 79 169.5 L 81 166 L 86 164 L 87.5 160 L 91 159.5 Q 89.4 156.5 84 158 L 86.5 153 Q 89.1 152.2 88 155.5 L 90 156.5 L 91.5 154 L 95.5 155 Q 97 152.5 102.5 154 L 104 152.5 L 102 152 Q 103.1 149.3 100.5 150 L 96.5 153 L 92.5 151 L 88 152 Q 86.8 149 90.5 150 L 93.5 148 Z M 101 158 L 99 160 L 106 160 Q 107 156 101 158 Z M 112 168 Q 111 172 114 171 Q 115 167 112 168 Z M 116 181 L 114 183 Q 112 188 116 187 L 116 181 Z M 79 192 L 77 193 L 77 194 L 80 193 L 79 192 Z M 116 193 L 118 198 L 118 197 L 118 195 Q 119 192 116 193 Z M 99 197 L 97 199 Q 98 201 95 200 L 95 202 L 91 203 L 90 207 L 91 210 L 92 213 Q 93 217 91 219 L 90 216 L 90 214 Q 89 211 87 214 Q 86 220 89 223 L 87 223 Q 88 234 85 240 Q 81 239 82 243 L 83 246 Q 80 248 81 255 L 77 258 L 79 258 L 79 264 L 74 274 L 75 277 L 73 280 L 73 282 L 69 293 L 69 297 Q 66 296 67 300 L 64 300 L 65 304 L 65 305 L 64 303 L 62 307 L 63 309 L 59 321 L 57 320 Q 59 312 55 313 L 56 321 L 59 322 L 57 325 L 54 325 L 54 330 L 57 329 L 58 332 L 62 333 L 64 337 L 69 334 L 97 342 L 100 340 L 108 341 L 107 343 L 110 344 L 113 343 L 113 345 L 115 344 L 123 345 L 126 348 L 129 347 L 142 351 L 144 350 L 149 353 L 152 353 L 155 356 Q 159 357 161 355 Q 164 354 163 357 Q 170 356 173 359 Q 177 358 176 361 Q 184 361 190 365 L 191 368 L 194 366 Q 198 370 207 369 L 209 371 L 214 371 L 217 374 Q 216 376 220 375 L 222 375 L 224 374 L 229 377 L 233 377 L 237 379 L 241 383 L 253 385 L 255 386 Q 253 390 257 389 Q 258 392 260 388 Q 265 387 267 391 L 271 391 L 271 392 Q 264 390 265 394 L 272 393 L 280 395 L 282 397 L 287 398 L 286 400 L 289 401 L 290 399 L 302 405 L 306 404 L 308 408 L 313 407 L 314 410 L 320 412 L 317 408 L 318 406 L 321 404 Q 319 396 324 395 L 324 385 L 323 384 L 325 377 L 325 369 L 328 367 L 327 366 L 328 363 L 329 366 L 330 362 L 330 353 L 328 352 L 330 345 L 330 352 L 332 351 L 331 346 L 334 340 Q 336 333 333 332 L 333 321 L 337 310 L 336 307 L 340 294 L 340 288 L 343 288 L 345 282 L 345 276 L 343 278 Q 344 282 342 284 Q 343 286 340 285 L 341 279 Q 340 276 343 277 L 342 276 L 343 268 L 346 268 L 345 265 L 343 266 Q 340 265 342 264 L 336 259 Q 335 263 338 262 L 338 266 Q 337 268 336 266 L 333 267 L 333 269 L 332 268 L 330 272 L 323 276 L 322 279 L 320 282 L 318 283 L 315 287 L 315 289 L 309 293 L 309 294 L 305 294 L 303 299 L 301 298 L 298 303 L 298 304 L 294 304 Q 293 300 297 299 L 297 297 Q 295 300 292 299 L 291 302 Q 290 305 293 304 Q 294 307 290 306 L 290 309 L 288 308 L 285 309 L 288 310 L 287 312 L 287 313 L 283 313 L 282 317 L 275 313 L 272 314 L 278 319 L 276 321 L 266 325 Q 260 326 259 323 L 252 323 L 249 319 L 248 319 L 243 315 L 241 308 L 239 306 L 240 304 L 240 292 Q 240 297 238 299 L 236 295 L 237 290 L 240 290 Q 239 287 238 289 L 237 287 Q 235 285 238 284 L 238 273 L 236 272 L 236 278 L 234 274 L 234 272 L 233 268 L 234 258 L 236 256 L 235 252 L 233 255 L 231 256 Q 229 249 233 250 L 233 244 L 231 244 L 228 243 L 230 249 L 228 249 Q 225 248 226 251 L 223 252 L 223 258 L 222 255 L 219 257 L 220 259 L 217 264 Q 218 268 214 266 L 212 263 Q 213 259 210 260 L 209 257 L 207 261 L 210 262 L 214 270 L 213 272 L 211 272 L 211 276 L 209 276 L 207 281 Q 208 283 206 282 L 203 287 L 200 285 Q 196 287 200 289 L 197 296 L 194 295 L 195 300 L 186 306 L 185 311 L 183 311 L 184 307 L 181 308 L 179 311 Q 183 312 180 314 L 177 313 L 173 316 L 162 313 L 162 312 Q 165 313 164 310 L 160 309 L 158 310 L 154 309 L 153 305 L 155 305 L 154 302 L 155 300 L 152 299 L 153 302 Q 154 304 151 303 L 149 300 L 147 298 L 143 294 L 144 287 L 143 287 Q 144 289 141 288 L 138 283 L 135 281 Q 136 278 133 277 Q 132 273 135 274 L 135 277 L 139 282 Q 141 281 140 277 L 136 272 L 135 273 L 135 272 L 134 269 L 130 266 L 130 264 L 127 265 Q 126 262 129 261 L 129 256 L 126 260 L 123 256 L 123 251 L 120 247 L 121 243 L 122 241 L 118 242 L 118 239 L 113 232 L 113 230 L 118 230 Q 119 226 117 225 L 114 227 Q 115 229 112 228 L 111 225 L 111 223 Q 112 220 109 221 L 108 215 L 106 213 L 106 205 L 104 204 L 101 199 L 99 197 Z M 74 199 L 73 202 Q 72 205 76 204 Q 80 202 77 201 Q 78 198 74 199 Z M 241 199 Q 237 200 238 205 L 242 203 Q 243 198 241 199 Z M 232 200 L 232 202 L 234 201 L 232 200 Z M 246 200 Q 245 204 248 205 L 249 202 L 246 200 Z M 108 201 L 108 208 L 110 208 L 110 202 L 108 201 Z M 79 203 L 78 206 L 78 208 L 79 213 L 82 211 L 81 204 L 79 203 Z M 247 205 L 245 207 L 248 207 L 247 205 Z M 234 206 Q 233 209 237 208 Q 238 205 234 206 Z M 361 214 L 361 216 L 366 216 L 366 214 L 361 214 Z M 130 218 L 130 220 L 132 221 Q 133 217 130 218 Z M 355 220 L 356 222 Q 360 223 361 221 L 355 220 Z M 82 221 L 80 223 L 81 227 L 83 223 Q 84 220 82 221 Z M 349 221 L 348 224 Q 352 225 351 222 L 349 221 Z M 222 222 L 220 224 L 222 224 L 222 222 Z M 368 222 L 370 224 Q 371 221 368 222 Z M 133 223 L 132 228 Q 137 230 135 224 L 133 223 Z M 124 224 L 125 227 L 127 226 Q 128 223 124 224 Z M 375 224 Q 372 229 376 228 L 375 224 Z M 218 225 Q 217 228 220 227 Q 221 224 218 225 Z M 347 226 L 347 229 L 349 228 Q 350 225 347 226 Z M 130 231 L 128 233 Q 129 235 126 234 Q 125 237 128 236 Q 129 238 130 236 L 130 231 Z M 135 237 L 133 239 Q 132 241 135 240 L 135 237 Z M 222 238 L 222 240 L 224 239 L 222 238 Z M 235 240 Q 234 243 237 242 Q 238 239 235 240 Z M 125 244 Q 124 247 127 246 L 128 248 L 128 246 L 125 244 Z M 238 248 L 238 252 L 240 253 Q 242 247 238 248 Z M 328 248 L 324 251 L 329 253 L 332 253 L 331 251 L 328 248 Z M 201 252 Q 198 257 202 256 L 201 252 Z M 127 253 L 126 254 Q 123 253 124 256 L 127 255 L 127 253 Z M 330 254 L 331 257 L 329 261 Q 328 263 331 262 L 332 259 Q 334 253 330 254 Z M 66 255 L 64 257 Q 63 261 66 260 L 66 255 Z M 317 255 L 314 256 L 313 261 Q 312 263 316 262 L 318 259 Q 320 254 317 255 Z M 60 256 L 61 264 L 63 258 L 60 256 Z M 214 256 L 215 261 L 218 262 Q 219 259 216 258 Q 217 255 214 256 Z M 340 256 L 342 259 L 344 258 Q 345 254 340 256 Z M 136 257 Q 135 261 138 262 L 139 258 L 136 257 Z M 71 260 L 70 263 Q 69 269 72 272 L 73 267 Q 75 259 71 260 Z M 346 261 Q 345 264 348 263 Q 349 260 346 261 Z M 327 262 Q 325 265 328 264 L 327 262 Z M 310 264 Q 309 267 304 266 L 304 268 L 303 270 L 300 269 L 297 278 L 303 274 L 305 275 L 307 274 L 305 270 L 310 267 L 310 264 Z M 238 265 Q 237 268 240 267 Q 241 264 238 265 Z M 318 265 L 318 268 L 320 267 Q 321 264 318 265 Z M 65 267 Q 62 273 66 272 Q 67 268 65 267 Z M 191 267 Q 188 271 192 270 L 191 267 Z M 314 269 L 312 272 Q 316 273 317 271 Q 318 268 314 269 Z M 196 271 L 194 275 L 198 276 L 197 275 L 198 272 L 196 271 Z M 204 274 L 201 278 L 205 279 L 206 276 L 204 274 Z M 67 275 L 65 277 L 66 280 Q 65 283 68 282 Q 69 277 67 275 Z M 315 275 L 315 276 L 318 276 L 315 275 Z M 188 276 L 182 283 L 183 286 L 188 279 L 188 276 Z M 358 279 L 358 286 L 360 285 Q 362 278 358 279 Z M 303 280 L 301 282 Q 300 287 304 285 Q 305 281 303 280 Z M 310 280 L 307 281 L 307 286 L 310 286 L 310 280 Z M 194 281 L 190 287 Q 189 289 192 288 L 194 284 L 194 281 Z M 160 282 L 160 286 L 162 285 Q 163 281 160 282 Z M 290 282 L 288 285 L 292 285 L 292 284 L 290 282 Z M 309 287 L 307 289 L 310 290 L 309 287 Z M 154 288 L 154 291 L 157 292 Q 159 286 154 288 Z M 294 288 L 292 290 L 297 290 Q 298 287 294 288 Z M 146 289 L 146 293 L 150 295 Q 151 292 148 291 Q 149 288 146 289 Z M 65 291 L 64 294 L 65 294 L 65 291 Z M 302 291 L 301 292 Q 298 291 299 295 L 304 294 Q 306 290 302 291 Z M 192 292 Q 191 295 194 294 Q 195 291 192 292 Z M 288 292 Q 286 297 290 296 L 291 294 L 288 292 Z M 355 292 L 352 293 L 355 298 L 356 296 L 355 292 Z M 259 296 Q 256 298 259 299 L 261 298 L 259 296 Z M 282 296 L 280 298 L 282 298 L 282 296 Z M 278 298 L 275 299 L 275 300 Q 279 301 280 299 L 278 298 Z M 342 300 Q 340 305 344 304 Q 346 299 342 300 Z M 355 300 Q 352 305 356 304 L 355 300 Z M 161 304 L 161 305 L 164 305 L 161 304 Z M 180 304 L 180 306 L 182 305 L 180 304 Z M 254 304 Q 253 308 256 307 Q 257 303 254 304 Z M 272 304 Q 271 307 274 306 Q 275 303 272 304 Z M 173 306 L 171 308 L 176 308 Q 177 305 173 306 Z M 246 307 L 250 317 L 251 314 L 250 310 L 246 307 Z M 283 307 L 283 308 L 285 308 L 283 307 Z M 354 309 L 355 315 L 356 315 Q 358 308 354 309 Z M 38 316 Q 36 321 40 320 Q 42 315 38 316 Z M 49 316 L 47 318 L 48 322 Q 47 325 50 324 L 50 317 L 49 316 Z M 269 321 L 269 322 L 271 322 L 269 321 Z M 42 324 L 42 334 L 41 335 L 42 336 L 44 335 L 44 325 L 42 324 Z M 51 329 L 49 331 L 50 333 L 52 332 L 51 329 Z M 56 334 L 56 336 Q 58 339 59 336 Q 60 332 56 334 Z M 28 346 L 26 351 L 29 351 L 30 349 Q 31 345 28 346 Z M 121 347 L 117 348 L 116 350 L 122 349 L 121 347 Z M 60 352 L 62 354 L 64 353 L 60 352 Z M 111 352 L 108 354 L 111 354 L 111 352 Z M 334 353 L 333 356 L 334 356 L 334 353 Z M 69 354 L 69 356 L 69 357 Q 74 358 75 356 Q 74 353 69 354 Z M 81 355 L 81 356 L 83 356 L 81 355 Z M 107 358 Q 104 360 107 361 Q 112 363 111 359 L 107 358 Z M 164 360 L 163 364 L 170 362 Q 169 359 164 360 Z M 173 364 Q 172 367 176 366 Q 177 363 173 364 Z M 136 368 L 136 370 L 136 371 L 139 370 L 136 368 Z M 144 368 L 144 370 Q 146 373 147 370 Q 148 367 144 368 Z M 338 368 L 338 376 L 340 376 L 341 372 Q 343 366 338 368 Z M 153 372 Q 150 374 153 375 L 156 374 L 153 372 Z M 162 372 Q 161 374 165 374 Q 166 371 162 372 Z M 223 377 L 218 380 Q 211 378 212 382 L 223 381 L 225 378 L 223 377 Z M 228 378 L 226 380 Q 225 382 229 381 L 230 379 L 228 378 Z M 208 383 L 208 385 L 211 386 Q 214 387 215 385 L 208 383 Z M 200 384 L 198 386 L 201 386 Q 202 383 200 384 Z M 339 396 L 338 399 L 339 399 L 339 396 Z M 277 397 L 277 398 L 279 398 L 277 397 Z M 250 402 L 250 404 L 252 403 L 250 402 Z M 259 404 L 258 406 L 260 405 L 259 404 Z M 338 405 L 338 407 L 341 408 Q 343 404 338 405 Z M 306 407 Q 304 410 307 409 L 306 407 Z M 295 408 L 295 410 L 298 412 L 303 413 L 303 411 L 295 408 Z M 308 413 L 308 416 L 313 416 Q 312 412 308 413 Z M 337 414 L 338 416 Q 339 413 337 414 Z M 331 419 L 329 422 L 334 421 L 331 419 Z M 337 419 L 335 421 L 336 424 L 338 423 Q 339 418 337 419 Z M 301 421 L 301 422 L 304 422 L 301 421 Z M 326 424 L 323 427 L 325 430 L 326 427 L 326 424 Z " /><path fill="rgb(251,110,1)" stroke="rgb(251,110,1)" stroke-width="1" opacity="0.996078431372549" d="M 60.5 391 L 62.5 391 L 66.5 392 L 68.5 392 L 78.5 392 L 86.5 395 L 95.5 396 L 97.5 395 L 100.5 397 L 111 397.5 L 109 398 Q 107.9 401.3 112 400 L 112.5 398 Q 114.2 400.7 120.5 399 L 129.5 402 L 134.5 402 L 139.5 404 L 144.5 404 L 146.5 404 L 153 406.5 L 153.5 408 L 158.5 407 L 159.5 410 L 167.5 408 L 171 409 L 171.5 411 L 178.5 411 L 181.5 413 L 183.5 413 L 200 417 L 200.5 419 L 202 418.5 L 201.5 420 L 205.5 421 L 207.5 421 L 215.5 420 L 218 421.5 L 217.5 423 Q 225.4 421.8 224.5 425 L 232.5 425 L 243.5 429 L 249 429 Q 247.7 432.7 253.5 431 L 256.5 434 L 263.5 434 L 272 437.5 L 271.5 439 L 261.5 439 L 261.5 440 L 270.5 441 L 276 439 L 277.5 443 L 283.5 440 L 286.5 440 Q 289.5 441.5 286.5 443 L 285 443.5 L 290.5 446 L 293 445 L 293.5 443 L 302.5 447 L 304 446.5 Q 303.1 449.9 308.5 448 L 314.5 452 Q 323.2 450.3 326 454.5 Q 325.3 458.3 327.5 459 L 331 458 Q 333.1 463.2 328.5 462 Q 327.3 459.8 326 462.5 L 327.5 465 L 330 463.5 L 329.5 465 L 331 465 L 331 469 Q 326.9 470.7 328 466.5 L 326 467.5 L 327 474 L 320 476 Q 318.9 473.3 321.5 474 Q 324.5 472.5 321.5 471 L 317 473 Q 318.4 477 311.5 475 L 308.5 472 Q 302.8 472.8 300 470.5 L 300.5 469 Q 293.2 469.6 290 467 L 289.5 464 L 288 467 Q 284.9 467.8 285.5 465 L 280.5 465 L 276 462 Q 277.3 459 273.5 460 L 270.5 459 L 266.5 461 L 262 458.5 Q 262.6 455.8 256.5 457 L 252.5 455 L 241 453 L 240.5 451 L 232.5 451 Q 233.5 447.8 227.5 449 L 224.5 448 L 222.5 449 Q 221.4 446.3 218 447 L 216.5 444 Q 211.7 445.3 210.5 443 Q 209 445.5 207.5 442 L 198.5 443 L 190.5 439 L 177.5 438 L 174.5 436 L 168.5 436 L 161.5 433 L 157.5 434 L 154.5 431 L 146.5 430 L 144.5 430 L 139 428.5 L 144 428 Q 145.3 424.3 139.5 426 Q 138.3 428.2 133.5 427 L 127.5 425 L 125.5 425 L 119.5 425 L 115.5 421 L 112.5 421 L 107.5 422 L 104 421 Q 105.1 418.3 102.5 419 L 96 418 Q 97.3 421.3 92.5 420 L 90 418.5 L 91 416 L 82.5 418 Q 76.1 413.2 64 415 L 63.5 411 L 61.5 412 L 55 411 L 54.5 409 L 53 409.5 L 52 405.5 L 53 403.5 L 50 399.5 L 52 399 L 57.5 392 L 60.5 391 Z M 57 394 L 58 398 Q 53 400 57 402 Q 59 403 58 401 L 61 399 Q 59 397 62 396 L 62 394 L 57 394 Z M 101 398 L 102 400 Q 103 397 101 398 Z M 107 398 Q 105 401 108 400 L 107 398 Z M 61 403 L 61 405 L 64 407 Q 66 401 61 403 Z M 54 405 L 54 408 L 57 409 L 58 407 L 54 405 Z M 128 406 L 128 409 L 135 409 L 128 406 Z M 141 408 L 139 410 L 146 413 L 147 410 L 141 408 Z M 168 411 L 167 412 Q 163 411 164 414 Q 169 415 171 413 L 168 411 Z M 113 416 L 113 417 L 118 418 L 120 418 Q 119 415 113 416 Z M 127 420 Q 125 423 128 422 L 127 420 Z M 139 420 Q 138 422 142 421 Q 143 423 144 421 L 139 420 Z M 226 426 L 224 428 L 227 428 L 226 426 Z M 212 428 L 212 430 Q 218 431 222 429 L 212 428 Z M 169 432 Q 170 435 177 434 L 177 432 L 169 432 Z M 186 434 L 185 435 Q 182 434 183 437 L 188 438 L 187 436 Q 188 433 186 434 Z M 211 436 Q 210 438 214 437 Q 215 439 216 437 L 211 436 Z M 200 437 Q 199 440 204 439 Q 205 435 200 437 Z M 275 444 L 275 446 L 279 445 L 275 444 Z M 271 446 L 269 448 L 272 448 L 271 446 Z M 259 450 L 259 452 L 268 452 L 267 450 L 259 450 Z M 320 455 L 320 457 L 318 458 L 316 458 L 315 460 Q 320 461 321 458 Q 324 459 323 457 L 320 455 Z M 263 456 L 264 458 L 266 457 L 263 456 Z M 322 463 L 320 467 L 322 466 L 322 463 Z M 304 466 L 304 468 Q 308 469 309 467 L 304 466 Z M 317 468 L 317 469 L 320 469 L 317 468 Z " /><path fill="rgb(251,110,1)" stroke="rgb(251,110,1)" stroke-width="1" opacity="0.996078431372549" d="M 278.5 439 L 282 439.5 L 278.5 440 L 278.5 439 Z " /><path fill="rgb(234,173,119)" stroke="rgb(234,173,119)" stroke-width="1" opacity="0.17647058823529413" d="M 95.5 143 Q 107.6 142.9 112 150.5 L 118 162.5 L 122 176.5 L 129 193.5 L 129 196.5 L 150 247.5 L 164 274.5 L 170.5 284 L 181 270.5 L 181 268.5 L 191 254.5 L 219 206.5 L 230.5 193 Q 235.2 189.7 244.5 191 Q 251 192.5 254 197.5 L 258 206.5 L 258 233.5 L 257 233.5 L 257 209.5 L 256 204.5 Q 253.8 197.8 248.5 194 Q 244.1 190.9 235.5 192 Q 228 195 224 201.5 L 188 261.5 L 171.5 285 L 167 281.5 L 147 243.5 L 129 199.5 L 115 158.5 Q 112.8 151.8 107.5 148 Q 103.3 143.7 93.5 145 L 85 150.5 L 80.5 158 L 80 155.5 L 85 148 L 95.5 143 Z " /><path fill="rgb(234,173,119)" stroke="rgb(234,173,119)" stroke-width="1" opacity="0.17647058823529413" d="M 79.5 159 L 80 161.5 L 78 164.5 L 71 187.5 L 50 266.5 L 33 312.5 L 32 326.5 L 30.5 328 Q 23.6 328.8 20 332 L 16 339.5 L 16 345.5 L 20.5 353 L 29.5 357 L 40.5 357 L 41.5 358 L 50.5 358 L 59 359.5 L 51.5 360 L 50.5 359 L 25.5 357 Q 19.4 355.6 17 350.5 Q 13.7 346.8 15 338.5 L 18 332 L 24.5 328 L 31 327 L 31 315.5 L 52 256.5 L 52 252.5 L 62 219.5 L 63 211.5 L 66 205.5 L 66 200.5 L 73 180.5 L 76 166.5 L 79.5 159 Z " /><path fill="rgb(234,173,119)" stroke="rgb(234,173,119)" stroke-width="1" opacity="0.17647058823529413" d="M 98.5 201 L 101 206.5 L 100 206.5 L 98.5 203 L 84 257.5 L 77.5 277 L 77 275.5 L 87 242.5 L 97 202.5 L 98.5 201 Z " /><path fill="rgb(234,173,119)" stroke="rgb(234,173,119)" stroke-width="1" opacity="0.17647058823529413" d="M 361.5 207 Q 374.8 206.8 379 215.5 Q 382 220.5 381 229.5 L 366.5 291 L 366 287.5 L 379 235.5 L 380 221.5 L 374.5 212 L 369.5 209 L 364.5 208 Q 363.3 210.3 358.5 209 L 350.5 214 L 313 251.5 L 311 254.5 L 308 256 L 308 258 L 306 258 L 306 260 Q 303.3 258.9 304 261.5 L 272.5 290 L 264 295 L 261 282.5 L 261 274.5 L 259 264.5 L 258 238.5 L 259 238.5 L 259 251.5 L 260 252.5 L 262 282.5 Q 264.6 285.4 264 291.5 L 265.5 293 L 296 268 L 297.5 265 Q 299.8 265.8 299 263.5 L 303 260.5 L 304.5 258 L 307 256.5 Q 306.3 254.3 308.5 255 L 311.5 251 Q 313.8 251.8 313 249.5 L 317 246.5 L 318.5 244 Q 320.8 244.8 320 242.5 L 324 239.5 L 349.5 213 L 361.5 207 Z " /><path fill="rgb(234,173,119)" stroke="rgb(234,173,119)" stroke-width="1" opacity="0.17647058823529413" d="M 101.5 208 Q 115.3 247.7 134 282.5 L 143 297.5 L 157.5 314 L 166 317.5 L 163.5 318 Q 152.8 313.8 147 304.5 L 135 286.5 L 125 267.5 L 105 221.5 L 101 210.5 L 101.5 208 Z " /><path fill="rgb(234,173,119)" stroke="rgb(234,173,119)" stroke-width="1" opacity="0.17647058823529413" d="M 227 251 Q 230.7 249.7 229 255.5 L 230 256.5 L 230 266.5 L 231 267.5 L 231 276.5 L 233 282.5 L 233 287.5 L 232 287.5 L 230 277.5 L 229 256.5 L 227.5 253 L 215 275.5 L 199 299.5 L 189.5 311 Q 184.7 316.2 176.5 318 L 176.5 317 L 180.5 316 L 191 307.5 Q 211.7 281.5 227 251 Z " /><path fill="rgb(234,173,119)" stroke="rgb(234,173,119)" stroke-width="1" opacity="0.17647058823529413" d="M 340.5 266 L 341 269.5 L 328 331.5 L 328 338.5 L 325 350.5 L 324 363.5 L 321 377.5 L 321 384.5 L 317.5 402 L 317 396.5 L 320 384.5 L 320 375.5 L 324 356.5 L 324 348.5 L 327 338.5 L 327 330.5 L 330 320.5 L 331 309.5 L 334 299.5 L 334 292.5 L 337 284.5 L 339 269.5 L 317.5 290 L 303 302.5 Q 303.8 304.8 301.5 304 L 296 308 Q 297.1 310.7 294.5 310 L 276.5 324 L 267.5 328 L 263.5 328 L 263.5 327 L 269.5 326 L 279.5 321 L 310 296 Q 308.9 293.3 311.5 294 L 329.5 276 L 331 276 L 333.5 272 Q 335.8 272.8 335 270.5 L 338 269 Q 336.9 266.3 339.5 267 L 340.5 266 Z " /><path fill="rgb(234,173,119)" stroke="rgb(234,173,119)" stroke-width="1" opacity="0.17647058823529413" d="M 76.5 278 L 77 281.5 L 70.5 298 L 70 296.5 L 76.5 278 Z " /><path fill="rgb(234,173,119)" stroke="rgb(234,173,119)" stroke-width="1" opacity="0.17647058823529413" d="M 233.5 289 L 238 309.5 Q 241.5 318.5 248.5 324 L 257 327.5 L 253.5 328 L 244 321.5 L 237 310.5 L 235 299.5 L 233 295.5 L 233.5 289 Z " /><path fill="rgb(234,173,119)" stroke="rgb(234,173,119)" stroke-width="1" opacity="0.17647058823529413" d="M 365.5 292 L 366 298.5 L 363 307.5 L 362 319.5 L 359 328.5 L 359 336.5 L 356 346.5 L 356 354.5 L 352.5 373 L 352 366.5 L 354 359.5 L 356 340.5 L 358 335.5 L 358 328.5 L 365.5 292 Z " /><path fill="rgb(234,173,119)" stroke="rgb(234,173,119)" stroke-width="1" opacity="0.17647058823529413" d="M 69.5 299 L 70 301.5 L 60 329 L 67.5 331 L 75.5 331 L 89 334.5 L 84.5 335 L 59 330 Q 62.2 313 69.5 299 Z " /><path fill="rgb(234,173,119)" stroke="rgb(234,173,119)" stroke-width="1" opacity="0.17647058823529413" d="M 168.5 318 L 175 318.5 L 168.5 319 L 168.5 318 Z " /><path fill="rgb(234,173,119)" stroke="rgb(234,173,119)" stroke-width="1" opacity="0.17647058823529413" d="M 90.5 335 L 100.5 336 L 104.5 338 L 110.5 338 L 121.5 342 L 126.5 342 L 134.5 345 L 139.5 345 L 149.5 349 L 157.5 350 L 160.5 352 L 164.5 352 L 174.5 356 L 178.5 356 L 184.5 359 L 188.5 359 L 191.5 361 L 210.5 366 L 248.5 380 L 251.5 380 L 259.5 384 L 262.5 384 L 315.5 404 L 317 403.5 Q 317.9 406.5 313.5 405 L 250.5 381 L 247.5 381 L 230.5 374 L 190.5 362 L 187.5 360 L 125.5 343 L 90.5 336 L 90.5 335 Z " /><path fill="rgb(234,173,119)" stroke="rgb(234,173,119)" stroke-width="1" opacity="0.17647058823529413" d="M 61.5 360 L 76 362.5 L 70.5 363 Q 67.6 360.4 61.5 361 L 61.5 360 Z " /><path fill="rgb(234,173,119)" stroke="rgb(234,173,119)" stroke-width="1" opacity="0.17647058823529413" d="M 78.5 363 L 97 366.5 L 91.5 367 L 82.5 364 L 78.5 364 L 78.5 363 Z " /><path fill="rgb(234,173,119)" stroke="rgb(234,173,119)" stroke-width="1" opacity="0.17647058823529413" d="M 98.5 367 L 109 369.5 L 105.5 370 L 98.5 368 L 98.5 367 Z " /><path fill="rgb(234,173,119)" stroke="rgb(234,173,119)" stroke-width="1" opacity="0.17647058823529413" d="M 111.5 370 L 126 373.5 L 121.5 374 L 111.5 371 L 111.5 370 Z " /><path fill="rgb(234,173,119)" stroke="rgb(234,173,119)" stroke-width="1" opacity="0.17647058823529413" d="M 127.5 374 L 138 376.5 L 133.5 377 L 127.5 375 L 127.5 374 Z " /><path fill="rgb(234,173,119)" stroke="rgb(234,173,119)" stroke-width="1" opacity="0.17647058823529413" d="M 351.5 374 L 352 381.5 L 349 394.5 L 348 406.5 L 344 420.5 L 342 424.5 L 333.5 433 L 326.5 436 Q 321 434.5 319.5 437 Q 318 434.5 312.5 436 L 307 433.5 L 309.5 433 Q 314.5 437 325.5 435 Q 333.3 432.8 338 427.5 L 340 424.5 L 344 417.5 L 347 405.5 L 351.5 374 Z " /><path fill="rgb(234,173,119)" stroke="rgb(234,173,119)" stroke-width="1" opacity="0.17647058823529413" d="M 139.5 377 L 163 383.5 L 159.5 384 L 139.5 378 L 139.5 377 Z " /><path fill="rgb(234,173,119)" stroke="rgb(234,173,119)" stroke-width="1" opacity="0.17647058823529413" d="M 164.5 384 L 176 387.5 L 172.5 388 L 164.5 385 L 164.5 384 Z " /><path fill="rgb(234,173,119)" stroke="rgb(234,173,119)" stroke-width="1" opacity="0.17647058823529413" d="M 60.5 387 L 72.5 387 L 90.5 391 L 103.5 392 L 108.5 394 L 116.5 394 L 129 397.5 L 125.5 398 L 102.5 393 L 63.5 388 Q 54.9 389.6 50 394 L 47 399.5 L 47 402.5 Q 48.8 409.7 54.5 413 L 59 415.5 L 57.5 416 L 49 409.5 L 46 403.5 L 46 398.5 L 52.5 391 L 60.5 387 Z " /><path fill="rgb(234,173,119)" stroke="rgb(234,173,119)" stroke-width="1" opacity="0.17647058823529413" d="M 177.5 388 L 186 390.5 L 182.5 391 L 177.5 389 L 177.5 388 Z " /><path fill="rgb(234,173,119)" stroke="rgb(234,173,119)" stroke-width="1" opacity="0.17647058823529413" d="M 187.5 391 L 208 397.5 L 204.5 398 L 201.5 396 L 189.5 393 L 187.5 391 Z " /><path fill="rgb(234,173,119)" stroke="rgb(234,173,119)" stroke-width="1" opacity="0.17647058823529413" d="M 131.5 398 L 136.5 398 L 146.5 401 L 152.5 401 L 164 404.5 L 160.5 405 L 150.5 402 L 131.5 399 L 131.5 398 Z " /><path fill="rgb(234,173,119)" stroke="rgb(234,173,119)" stroke-width="1" opacity="0.17647058823529413" d="M 209.5 398 L 228 404.5 L 225.5 405 L 213.5 401 L 209.5 399 L 209.5 398 Z " /><path fill="rgb(234,173,119)" stroke="rgb(234,173,119)" stroke-width="1" opacity="0.17647058823529413" d="M 165.5 405 L 169.5 405 L 194.5 412 L 202.5 413 L 206.5 415 L 210.5 415 L 246.5 426 L 250.5 426 L 256.5 429 L 260.5 429 L 280.5 436 L 284.5 436 L 302.5 443 L 306.5 443 L 324.5 450 L 327.5 450 L 333 455.5 Q 336.5 459.5 335 468.5 L 330.5 475 Q 326.1 480.6 314.5 479 L 306 475.5 L 307.5 475 L 315.5 478 L 322.5 478 L 332 471.5 Q 335 468.5 334 461.5 L 333 457.5 L 329.5 453 L 321.5 449 Q 301 444.5 283.5 437 L 273.5 435 L 270.5 433 L 220.5 420 L 209.5 416 L 165.5 406 L 165.5 405 Z " /><path fill="rgb(234,173,119)" stroke="rgb(234,173,119)" stroke-width="1" opacity="0.17647058823529413" d="M 229.5 405 L 239 408.5 L 236.5 409 L 229.5 406 L 229.5 405 Z " /><path fill="rgb(234,173,119)" stroke="rgb(234,173,119)" stroke-width="1" opacity="0.17647058823529413" d="M 240.5 409 L 247 411.5 L 244.5 412 L 240.5 410 L 240.5 409 Z " /><path fill="rgb(234,173,119)" stroke="rgb(234,173,119)" stroke-width="1" opacity="0.17647058823529413" d="M 248.5 412 L 267 418.5 L 263.5 419 L 248.5 413 L 248.5 412 Z " /><path fill="rgb(234,173,119)" stroke="rgb(234,173,119)" stroke-width="1" opacity="0.17647058823529413" d="M 60.5 416 L 72 418.5 L 66.5 419 L 60.5 417 L 60.5 416 Z " /><path fill="rgb(234,173,119)" stroke="rgb(234,173,119)" stroke-width="1" opacity="0.17647058823529413" d="M 75.5 419 L 97 422.5 L 91.5 423 L 80.5 420 L 75.5 420 L 75.5 419 Z " /><path fill="rgb(234,173,119)" stroke="rgb(234,173,119)" stroke-width="1" opacity="0.17647058823529413" d="M 268.5 419 L 285 425.5 L 282.5 426 L 277.5 423 L 269.5 421 L 268.5 419 Z " /><path fill="rgb(234,173,119)" stroke="rgb(234,173,119)" stroke-width="1" opacity="0.17647058823529413" d="M 98.5 423 L 111 425.5 L 106.5 426 L 98.5 424 L 98.5 423 Z " /><path fill="rgb(234,173,119)" stroke="rgb(234,173,119)" stroke-width="1" opacity="0.17647058823529413" d="M 113.5 426 L 144 432.5 L 139.5 433 L 130.5 430 L 113.5 427 L 113.5 426 Z " /><path fill="rgb(234,173,119)" stroke="rgb(234,173,119)" stroke-width="1" opacity="0.17647058823529413" d="M 286.5 426 L 305 432.5 L 302.5 433 Q 298 429.5 290.5 429 L 286.5 427 L 286.5 426 Z " /><path fill="rgb(234,173,119)" stroke="rgb(234,173,119)" stroke-width="1" opacity="0.17647058823529413" d="M 146.5 433 L 149 433.5 L 146.5 434 L 146.5 433 Z " /><path fill="rgb(234,173,119)" stroke="rgb(234,173,119)" stroke-width="1" opacity="0.17647058823529413" d="M 150.5 434 L 175 439.5 L 170.5 440 Q 163.8 436.2 153.5 436 L 150.5 435 L 150.5 434 Z " /><path fill="rgb(234,173,119)" stroke="rgb(234,173,119)" stroke-width="1" opacity="0.17647058823529413" d="M 178.5 440 L 206 446.5 L 202.5 447 L 181.5 442 L 178.5 441 L 178.5 440 Z " /><path fill="rgb(234,173,119)" stroke="rgb(234,173,119)" stroke-width="1" opacity="0.17647058823529413" d="M 208.5 447 L 234 453.5 L 231.5 454 Q 224.8 450.2 214.5 450 L 208.5 448 L 208.5 447 Z " /><path fill="rgb(234,173,119)" stroke="rgb(234,173,119)" stroke-width="1" opacity="0.17647058823529413" d="M 236.5 454 L 249 457.5 L 245.5 458 L 236.5 455 L 236.5 454 Z " /><path fill="rgb(234,173,119)" stroke="rgb(234,173,119)" stroke-width="1" opacity="0.17647058823529413" d="M 250.5 458 L 260 460.5 L 256.5 461 L 250.5 459 L 250.5 458 Z " /><path fill="rgb(234,173,119)" stroke="rgb(234,173,119)" stroke-width="1" opacity="0.17647058823529413" d="M 261.5 461 L 273 464.5 L 269.5 465 L 261.5 462 L 261.5 461 Z " /><path fill="rgb(234,173,119)" stroke="rgb(234,173,119)" stroke-width="1" opacity="0.17647058823529413" d="M 274.5 465 L 283 467.5 L 279.5 468 L 274.5 466 L 274.5 465 Z " /><path fill="rgb(234,173,119)" stroke="rgb(234,173,119)" stroke-width="1" opacity="0.17647058823529413" d="M 284.5 468 L 305 474.5 L 301.5 475 L 298.5 473 L 286.5 470 L 284.5 468 Z " /><path fill="rgb(244,111,6)" stroke="rgb(244,111,6)" stroke-width="1" opacity="0.996078431372549" d="M 97.5 145 L 104.5 147 L 109 150.5 L 114 158.5 L 128 199.5 L 146 243.5 L 156 264.5 L 169.5 286 L 172 286.5 L 168.5 287 L 164.5 280 L 160.5 286 L 160 282 L 162 282 L 162 276 Q 159.3 277.1 160 274.5 L 150.5 256 L 148.5 259 Q 145.3 257.3 149 255.5 Q 150.1 251.3 146 253 L 146 246.5 Q 142.3 244.2 142.5 238 L 142 240 Q 138.3 241.5 139 238.5 Q 141.2 237.3 140 232.5 L 138.5 230 L 138 235 Q 134 236.4 136 229.5 L 138 225.5 Q 132 219 130.5 208 L 128.5 211 L 128 208.5 L 129 205.5 L 123 193.5 L 124 191.5 L 120 189.5 Q 118.5 185.1 121.5 186 L 121 184.5 Q 121.8 179.8 118.5 179 L 118 181 L 116 181 L 116 187 L 114 187 Q 112.7 181.9 116 180.5 L 116 175.5 L 115 173.5 L 116 173.5 L 116.5 175 L 117 171.5 Q 113.5 170 116 168.5 L 114 163 Q 111 164.3 112 160.5 Q 114.7 158.8 110.5 157 L 108 156.5 L 108.5 155 Q 105.5 155.9 107 151.5 Q 104 146 93.5 148 L 88 150 Q 86.7 153.3 91.5 152 L 93.5 151 L 97.5 153 L 102 150 Q 100.9 152.7 103.5 152 L 102.5 154 L 94.5 155 L 91.5 154 L 89.5 157 L 88 153 L 85 154.5 L 84 158 Q 89.4 156.5 91 159.5 L 86 161.5 Q 87.1 164.8 84.5 164 L 81 166 L 79 169.5 L 79 173.5 L 80 178.5 L 77 179.5 L 75 185.5 L 76 192 L 73 193.5 L 71 197.5 L 71 204.5 L 72 208 L 74 208.5 L 74 215.5 L 72 216.5 L 71 208.5 L 69.5 207 L 68 208.5 L 67 220 Q 63.3 218.7 65 224.5 L 65 226.5 Q 66.8 233.3 63.5 235 L 62 235 L 62 240 Q 65.3 238.9 64 243 Q 61.3 244.1 62 241.5 L 59 240 L 58 246.5 L 64 250.5 Q 64.8 253.1 61.5 252 L 58 253 L 57.5 251 L 55 259.5 L 57 264.5 L 56 267 Q 52.7 268.3 54 263.5 L 52 264.5 Q 51.2 269.8 54 271.5 L 52 273.5 Q 53.3 278.8 50.5 280 L 47 282.5 L 48 284.5 L 46 285 L 47 287.5 L 44 293.5 L 44 298 Q 47.3 296.7 46 301.5 L 45 303.5 L 46 304.5 L 46 319.5 L 45 319.5 L 42 305.5 L 43 301.5 L 39 304.5 L 37 308.5 L 39 309.5 L 37 310 L 35 315.5 L 35 319.5 Q 37.5 321 36 326.5 L 32.5 332 L 30 331 L 29 333.5 L 30 337.5 L 28 338.5 L 26 334.5 L 28 331 Q 24.3 329.5 25 332.5 Q 21.9 334.3 23.5 336 L 20 337.5 L 21.5 340 L 23.5 339 Q 25.8 339.8 25 343.5 L 24 346 Q 21.3 347.1 22 344.5 Q 20 340 18 343.5 L 22.5 351 Q 24.8 350.3 24 352.5 L 25.5 354 L 31.5 355 Q 32.7 352.8 37.5 354 L 43.5 356 L 56.5 356 L 75.5 360 L 83 357 Q 84.7 361.1 80.5 360 L 80.5 361 Q 85.3 363.3 93.5 362 L 96.5 364 L 102.5 364 Q 104.8 367.2 111.5 366 L 116.5 369 L 125.5 370 Q 127 367.5 128.5 371 Q 131.3 374.7 138.5 374 L 143 372 Q 144.1 374.7 141.5 374 L 141.5 375 L 145.5 374 Q 149.1 378.4 156.5 379 L 159 377.5 L 158.5 379 Q 166.1 377.9 169 381.5 Q 168.2 384.1 171.5 383 Q 172.8 385.3 177.5 384 L 181.5 387 L 187.5 387 L 190.5 389 L 191.5 386 L 197.5 386 L 201 384 Q 202.3 387 198.5 386 L 195 388.5 Q 195.8 390.8 193.5 390 L 193.5 391 L 204.5 390 L 206.5 388 L 215 391.5 L 210.5 393 L 208 392 Q 209 389 206 390 Q 207.1 392.7 204.5 392 L 205.5 394 L 208.5 396 L 217 397 Q 218.5 393.2 215.5 394 L 216.5 392 L 220 394.5 Q 217.9 400.4 222.5 399 L 226.5 401 Q 231.3 402.2 232.5 400 L 233 402 L 231 402.5 L 234 403 Q 232.8 406 236.5 405 L 238.5 405 L 241.5 405 L 245.5 408 L 251.5 408 Q 253.5 411.5 259.5 411 L 269.5 417 L 273.5 417 L 276.5 419 L 281.5 419 L 291.5 422 L 295.5 425 L 297 424.5 L 296 428 L 228.5 403 L 152.5 379 L 105.5 367 L 101.5 367 L 87.5 363 L 81.5 363 L 71.5 360 L 59.5 359 L 52.5 357 L 28.5 356 Q 22 354.5 19 349.5 Q 16 346.5 17 339.5 Q 18.4 333.4 23.5 331 L 32 329 L 33 316.5 L 55 253.5 L 55 249.5 L 78 167.5 Q 80.8 156.1 87 149 L 97.5 145 Z " /><path fill="rgb(244,111,6)" stroke="rgb(244,111,6)" stroke-width="1" opacity="0.996078431372549" d="M 100.5 158 Q 107.4 156 106 160 L 99 159.5 L 100.5 158 Z " /><path fill="rgb(244,111,6)" stroke="rgb(244,111,6)" stroke-width="1" opacity="0.996078431372549" d="M 112 168 Q 115.3 166.9 114 171 Q 110.7 172.1 112 168 Z " /><path fill="rgb(244,111,6)" stroke="rgb(244,111,6)" stroke-width="1" opacity="0.996078431372549" d="M 78.5 192 L 80 192.5 L 76.5 194 L 76.5 193 L 78.5 192 Z " /><path fill="rgb(244,111,6)" stroke="rgb(244,111,6)" stroke-width="1" opacity="0.996078431372549" d="M 115.5 193 Q 118.8 191.9 118 194.5 L 118 196.5 L 117.5 198 L 115.5 193 Z " /><path fill="rgb(244,111,6)" stroke="rgb(244,111,6)" stroke-width="1" opacity="0.996078431372549" d="M 235.5 193 L 244.5 193 L 251 197.5 L 255 204.5 L 256 209.5 L 256 231.5 L 257 232.5 L 258 265.5 L 259 266.5 L 261 287.5 L 264.5 296 L 279 286 Q 277.9 283.3 280.5 284 L 297.5 268 L 299 268 Q 297.9 265.3 300.5 266 L 349.5 216 L 358.5 210 L 365.5 209 Q 373.2 210.8 377 216.5 Q 380.7 220.8 379 230.5 L 375.5 245 L 373 241.5 L 377 232.5 L 378 224.5 L 377 221.5 L 376.5 219 L 376 221 Q 373.3 222.1 374 219.5 L 370 216.5 L 371 213 L 366.5 211 L 357 213 L 355.5 216 L 352 217.5 L 351.5 220 Q 350 216.5 348.5 219 Q 346.3 218.3 347 220.5 L 347 222.5 Q 347.9 225.5 343.5 224 L 341 230 L 343 230.5 L 341.5 231 L 337.5 230 L 332.5 238 L 331 237.5 L 333 245 L 330 243.5 L 329.5 239 L 329 241 L 326 242.5 L 324.5 246 L 320 248.5 L 320 252 Q 323.7 250.5 323 253.5 L 320.5 257 L 318 253.5 Q 320.3 252.2 317.5 251 L 317 253 L 310 257 L 310 261 L 308.5 261 L 304 263.5 L 303 265.5 L 307.5 266 L 311 263.5 L 306.5 270 Q 304.3 269.3 305 271.5 Q 308.8 273.3 305.5 275 L 302.5 274 L 297 278 L 300 269.5 L 298.5 270 L 294 273.5 L 292.5 277 L 287 279.5 L 285 282.5 L 284.5 284 Q 287.1 283.2 286 286.5 Q 283.5 288 285 293.5 L 282 298 L 278.5 300 L 274.5 300 L 274.5 299 Q 280.1 299.1 282 295.5 Q 283.5 289.5 280.5 288 L 277 289.5 L 274.5 293 L 270 293 Q 271.5 296.8 268.5 296 L 266 297 Q 265 300 268 299 L 268 302 L 264 301 L 265 298.5 L 259.5 290 L 258 289.5 L 260 285.5 L 257 280.5 L 258 277.5 Q 259.9 272.1 256.5 273 L 256.5 272 L 258 271.5 Q 254.6 266.4 256 256.5 L 257 253.5 L 255 250.5 L 255 234.5 L 252 228.5 L 252 225.5 L 253 224.5 L 253 216.5 L 252 215.5 L 252 207.5 L 253 203.5 L 247.5 197 L 240.5 195 L 232.5 197 L 228 200.5 L 228 204 Q 230.7 202.9 230 205.5 L 228.5 208 Q 227.3 205 223 206 L 222 213.5 L 220.5 215 L 219 215.5 Q 221.2 216.8 220 221.5 L 218.5 221 L 215.5 220 L 214 223.5 Q 216.5 225 213 226.5 L 210.5 230 Q 208.3 229.3 209 231.5 L 208 233.5 L 209.5 236 L 218.5 231 L 220 233.5 L 214.5 238 L 211.5 238 L 209.5 237 L 208 240.5 Q 210.2 241.8 207.5 243 L 205 241.5 L 206 238.5 L 202 241.5 L 204 244.5 L 208 251.5 L 208 255.5 L 206 254.5 L 206 252 Q 203.3 253.1 204 250.5 L 200.5 246 Q 198.3 245.3 199 247.5 L 196 253.5 L 197 255.5 L 194.5 257 L 193 256.5 Q 194 261 191.5 262 L 190 261.5 L 191 263.5 L 189 263.5 L 189 266 Q 186 264.8 187 268.5 L 185 272 Q 182.3 270.9 183 273.5 L 177 281.5 L 175.5 289 L 173 284.5 L 191 258.5 L 221 207.5 L 231.5 195 L 235.5 193 Z M 302 266 L 300 269 L 303 270 L 304 268 L 302 266 Z " /><path fill="rgb(244,111,6)" stroke="rgb(244,111,6)" stroke-width="1" opacity="0.996078431372549" d="M 98.5 197 L 101 198.5 L 103.5 204 L 106 204.5 L 106 212.5 L 108 214.5 L 109 221 Q 111.7 219.9 111 222.5 L 111 224.5 L 112 228 Q 114.7 229.1 114 226.5 L 116.5 225 Q 119 226.2 118 230 L 113 230 L 113 231.5 L 118 238.5 L 118 242 L 121.5 241 L 121 242.5 L 120 246.5 Q 124 249 123.5 256 L 124 254 L 126.5 253 L 127 254.5 L 124 256.5 L 125.5 260 L 128.5 256 L 129 260.5 Q 126.2 261.6 127 265 L 129.5 264 L 130 266 L 134 268.5 L 134 270.5 L 140 276.5 L 141 281.5 L 138 282.5 L 140.5 288 Q 143.8 289.1 143 286.5 L 144 286.5 L 143 293.5 L 146.5 298 L 149 299.5 L 150.5 303 Q 153.8 304.1 153 301.5 L 152 299 L 155 299.5 L 154 301.5 L 155 304.5 L 153 304.5 L 154 307.5 L 148 302.5 Q 133.8 283.7 124 260.5 L 108 223.5 L 100 200 Q 96.3 198.5 97 201.5 L 83 253.5 L 78 267.5 L 77 274.5 L 69.5 296 L 69 292.5 L 73 281.5 L 73 279.5 L 74 277.5 L 74 275.5 L 77 265.5 L 79 263.5 L 79 258 L 77 257.5 L 81 254.5 Q 80.2 248.2 83 245.5 L 82 242.5 Q 80.8 238.8 84.5 240 Q 88.3 233.5 87 223 L 89 222.5 Q 86.4 219.6 87 213.5 Q 88.5 210.5 90 213.5 L 90 215.5 L 90.5 219 Q 92.8 217.3 92 212.5 L 91 209.5 L 90 206.5 L 91 203 L 95 202 L 95 200 Q 97.7 201.1 97 198.5 L 98.5 197 Z M 133 274 Q 132 277 135 279 Q 134 282 137 281 L 138 282 Q 139 277 135 277 Q 136 273 133 274 Z " /><path fill="rgb(244,111,6)" stroke="rgb(244,111,6)" stroke-width="1" opacity="0.996078431372549" d="M 74 199 Q 77.8 197.5 77 200.5 Q 79.8 202.3 75.5 204 Q 71.8 205.3 73 201.5 L 74 199 Z " /><path fill="rgb(244,111,6)" stroke="rgb(244,111,6)" stroke-width="1" opacity="0.996078431372549" d="M 240.5 199 Q 243.5 198.1 242 202.5 L 238 205 Q 237 200.3 240.5 199 Z " /><path fill="rgb(244,111,6)" stroke="rgb(244,111,6)" stroke-width="1" opacity="0.996078431372549" d="M 232 200 L 234 200.5 L 232 201.5 L 232 200 Z " /><path fill="rgb(244,111,6)" stroke="rgb(244,111,6)" stroke-width="1" opacity="0.996078431372549" d="M 246 200 L 249 201.5 L 247 205.5 L 247.5 207 L 244.5 208 L 247 204.5 L 246 203.5 L 246 200 Z " /><path fill="rgb(244,111,6)" stroke="rgb(244,111,6)" stroke-width="1" opacity="0.996078431372549" d="M 108 201 L 110 201.5 L 110 208 L 108 207.5 L 108 201 Z " /><path fill="rgb(244,111,6)" stroke="rgb(244,111,6)" stroke-width="1" opacity="0.996078431372549" d="M 78.5 203 L 81 204 L 82 210.5 L 79 212.5 L 78 207.5 L 78 205.5 L 78.5 203 Z " /><path fill="rgb(244,111,6)" stroke="rgb(244,111,6)" stroke-width="1" opacity="0.996078431372549" d="M 234 206 Q 238.1 204.7 237 208 Q 232.9 209.3 234 206 Z " /><path fill="rgb(244,111,6)" stroke="rgb(244,111,6)" stroke-width="1" opacity="0.996078431372549" d="M 361 214 L 366 214 L 366 216 L 361 216 L 361 214 Z " /><path fill="rgb(244,111,6)" stroke="rgb(244,111,6)" stroke-width="1" opacity="0.996078431372549" d="M 130 218 Q 133 216.8 132 220.5 L 132.5 222 L 130 218 Z " /><path fill="rgb(244,111,6)" stroke="rgb(244,111,6)" stroke-width="1" opacity="0.996078431372549" d="M 354.5 220 L 361 220.5 Q 360 223 355.5 222 L 354.5 220 Z " /><path fill="rgb(244,111,6)" stroke="rgb(244,111,6)" stroke-width="1" opacity="0.996078431372549" d="M 81.5 221 Q 83.8 220.3 83 222.5 L 80.5 227 L 80 222.5 L 81.5 221 Z " /><path fill="rgb(244,111,6)" stroke="rgb(244,111,6)" stroke-width="1" opacity="0.996078431372549" d="M 348.5 221 L 351 222 Q 352.1 225.3 348 224 L 348.5 221 Z " /><path fill="rgb(244,111,6)" stroke="rgb(244,111,6)" stroke-width="1" opacity="0.996078431372549" d="M 221.5 222 L 222 224 L 220 223.5 L 221.5 222 Z " /><path fill="rgb(244,111,6)" stroke="rgb(244,111,6)" stroke-width="1" opacity="0.996078431372549" d="M 367.5 222 Q 371.3 221 370 224 L 367.5 222 Z " /><path fill="rgb(244,111,6)" stroke="rgb(244,111,6)" stroke-width="1" opacity="0.996078431372549" d="M 132.5 223 L 135 224 Q 136.9 229.6 132 228 L 132.5 223 Z " /><path fill="rgb(244,111,6)" stroke="rgb(244,111,6)" stroke-width="1" opacity="0.996078431372549" d="M 124 224 Q 128.1 222.7 127 226 L 124.5 227 L 124 224 Z " /><path fill="rgb(244,111,6)" stroke="rgb(244,111,6)" stroke-width="1" opacity="0.996078431372549" d="M 374.5 224 L 376 228 Q 372.2 229.2 374.5 224 Z " /><path fill="rgb(244,111,6)" stroke="rgb(244,111,6)" stroke-width="1" opacity="0.996078431372549" d="M 218 225 Q 221 224 220 227 Q 217 228 218 225 Z " /><path fill="rgb(244,111,6)" stroke="rgb(244,111,6)" stroke-width="1" opacity="0.996078431372549" d="M 347 226 Q 349.7 224.9 349 227.5 L 346 229.5 L 347 226 Z " /><path fill="rgb(244,111,6)" stroke="rgb(244,111,6)" stroke-width="1" opacity="0.996078431372549" d="M 129.5 231 L 130 235.5 Q 128.8 238.3 127.5 236 Q 124.9 236.7 126 234 Q 128.7 235.1 128 232.5 L 129.5 231 Z " /><path fill="rgb(244,111,6)" stroke="rgb(244,111,6)" stroke-width="1" opacity="0.996078431372549" d="M 134.5 237 L 135 240 Q 132.3 241.1 133 238.5 L 134.5 237 Z " /><path fill="rgb(244,111,6)" stroke="rgb(244,111,6)" stroke-width="1" opacity="0.996078431372549" d="M 222 238 L 224 238.5 L 222 239.5 L 222 238 Z " /><path fill="rgb(244,111,6)" stroke="rgb(244,111,6)" stroke-width="1" opacity="0.996078431372549" d="M 235 240 Q 238 239 237 242 Q 234 243 235 240 Z " /><path fill="rgb(244,111,6)" stroke="rgb(244,111,6)" stroke-width="1" opacity="0.996078431372549" d="M 227.5 241 Q 228.8 244.7 233 244 L 233 250 L 231 250.5 L 231 255.5 L 233 254.5 L 234.5 252 L 236 255.5 L 234 257.5 L 233 267.5 L 234 271.5 L 234 273.5 L 235.5 278 L 236 272 L 238 272.5 L 238 283.5 Q 234.5 285 237 286.5 L 237.5 289 Q 238.8 286.8 240 289.5 L 237 290 L 236 294.5 L 237.5 299 Q 240.4 297.4 239.5 292 L 240 303.5 L 239 305.5 L 241 307.5 L 243 314.5 L 247.5 319 L 249 318.5 L 251.5 323 L 258.5 323 Q 259.8 326.2 265.5 325 L 271 322.5 L 267 320.5 L 268.5 321 L 272.5 322 L 278 318.5 L 272 313.5 L 274.5 313 L 281.5 317 L 283 313 L 287 313 L 287 311.5 L 287.5 310 L 282 307.5 L 284.5 307 L 287.5 308 L 289 307.5 L 288.5 309 Q 291.5 309.7 290 306 L 293 306 L 293 304 Q 290 305.3 291 301.5 L 292 299 Q 295.4 299.8 296.5 297 L 297 298.5 Q 293.3 299.8 294 304 L 298 304 L 298 302.5 L 300.5 298 L 302.5 299 L 305 294 L 309 294 L 309 292.5 L 315 288.5 L 315 286.5 L 317.5 283 L 320 281.5 L 322 278.5 L 323 276 L 330 271.5 L 332.5 267 L 335.5 266 Q 336.8 268.3 338 265.5 L 338 262 Q 334.7 263.1 336 259 L 342 263.5 L 314.5 290 L 313 290 Q 314.1 292.7 311.5 292 Q 296.1 308.1 277.5 321 Q 270.3 326.8 257.5 327 Q 248.6 324.9 244 318.5 L 239 309.5 L 235 294.5 L 233 276.5 L 232 275.5 L 232 268.5 L 231 267.5 L 230 250 L 226 251.5 L 223.5 257 L 223 252 L 226 250.5 Q 225.3 248.3 227.5 249 Q 229.8 248.3 229 244.5 L 227.5 241 Z " /><path fill="rgb(244,111,6)" stroke="rgb(244,111,6)" stroke-width="1" opacity="0.996078431372549" d="M 125 244 L 128 245.5 L 127.5 248 L 127 246 Q 124 247 125 244 Z " /><path fill="rgb(244,111,6)" stroke="rgb(244,111,6)" stroke-width="1" opacity="0.996078431372549" d="M 374.5 246 L 375 248.5 L 367 278.5 L 365 292.5 L 360 312.5 L 359 323.5 L 354 346.5 L 351 373.5 L 349 379.5 L 349 387.5 L 348 388.5 L 346 405.5 L 340 423.5 L 332.5 431 Q 326.3 435.8 313.5 434 L 297 428.5 L 300.5 428 L 302 428.5 L 302.5 426 L 310 428 Q 308.5 431.7 311.5 431 Q 312.8 434.3 318.5 433 L 330 431 L 333.5 426 L 337 424.5 L 335 420.5 L 338 419 L 338.5 423 L 341 418.5 L 339 417.5 L 344 409.5 L 344 404 Q 340.3 405.4 342 399.5 L 343.5 396 L 344.5 403 L 346 394.5 L 344 391.5 Q 345.3 384.7 343 381.5 L 346 380 L 346.5 389 L 348 383.5 L 348 381.5 L 348 372.5 L 345 372 L 345 368 Q 348.8 369.5 348 366.5 L 349 364.5 L 349 362.5 L 351 359.5 L 353 341.5 L 356 328.5 L 354 321 Q 358 322.4 356 315.5 Q 353.2 313.5 354 309 Q 358 307.6 356 314.5 L 357.5 314 Q 360.5 314.5 359 307.5 L 359 305.5 L 358 302.5 L 361 301 L 362 296.5 Q 359.3 294.2 360 288.5 L 362 289.5 Q 361.3 292.1 364 291 Q 362.9 281.3 367 275.5 L 366 273.5 L 370 262.5 L 369 260.5 L 372 252.5 L 371 249.5 L 372 249.5 L 372.5 251 L 374.5 246 Z " /><path fill="rgb(244,111,6)" stroke="rgb(244,111,6)" stroke-width="1" opacity="0.996078431372549" d="M 238 248 Q 241.7 246.7 240 252.5 L 238 251.5 L 238 248 Z " /><path fill="rgb(244,111,6)" stroke="rgb(244,111,6)" stroke-width="1" opacity="0.996078431372549" d="M 327.5 248 L 331 250.5 L 332 252.5 L 328.5 253 L 324 250.5 L 327.5 248 Z " /><path fill="rgb(244,111,6)" stroke="rgb(244,111,6)" stroke-width="1" opacity="0.996078431372549" d="M 200.5 252 L 202 256 Q 198.2 257.2 200.5 252 Z " /><path fill="rgb(244,111,6)" stroke="rgb(244,111,6)" stroke-width="1" opacity="0.996078431372549" d="M 330 254 Q 333.7 252.7 332 258.5 L 331 262 Q 328.3 263.1 329 260.5 L 331 256.5 L 330 254 Z " /><path fill="rgb(244,111,6)" stroke="rgb(244,111,6)" stroke-width="1" opacity="0.996078431372549" d="M 65.5 255 L 66 260 Q 62.7 261.3 64 256.5 L 65.5 255 Z " /><path fill="rgb(244,111,6)" stroke="rgb(244,111,6)" stroke-width="1" opacity="0.996078431372549" d="M 220.5 255 Q 223.9 254.1 222 259.5 L 202 291.5 Q 194.2 303.7 183.5 313 L 175.5 317 L 167.5 317 Q 159 315.5 155 309.5 L 156.5 310 L 159.5 309 L 164 310 Q 165.3 313 161.5 312 L 161.5 313 L 172.5 316 L 176.5 313 L 179.5 314 Q 182.8 312.3 179 310.5 L 180.5 308 L 184 307 L 183 310.5 L 185 311 L 186 306 L 195 300 L 194 294 Q 191 295 192 292 Q 194.7 290.9 194 293.5 L 197 295.5 L 200 288.5 Q 196.3 286.8 199.5 285 L 202.5 287 L 205.5 282 Q 207.8 282.8 207 280.5 L 209 276 L 211 276 L 211 272 L 212.5 272 L 214 269.5 L 210 262 L 207 260.5 L 208.5 257 L 210 260 Q 213 258.8 212 262.5 L 214 266 Q 218.1 267.7 217 263.5 L 217.5 262 L 215 260.5 L 214 256 Q 216.7 254.9 216 257.5 L 218.5 262 L 220 258.5 L 219 256.5 L 220.5 255 Z " /><path fill="rgb(244,111,6)" stroke="rgb(244,111,6)" stroke-width="1" opacity="0.996078431372549" d="M 316.5 255 Q 319.5 254.1 318 258.5 L 315.5 262 Q 312.2 263.1 313 260.5 L 314 256 L 316.5 255 Z " /><path fill="rgb(244,111,6)" stroke="rgb(244,111,6)" stroke-width="1" opacity="0.996078431372549" d="M 60 256 L 63 257.5 L 60.5 264 L 60 256 Z " /><path fill="rgb(244,111,6)" stroke="rgb(244,111,6)" stroke-width="1" opacity="0.996078431372549" d="M 340 256 Q 345.2 254.3 344 258 L 341.5 259 L 340 256 Z " /><path fill="rgb(244,111,6)" stroke="rgb(244,111,6)" stroke-width="1" opacity="0.996078431372549" d="M 136 257 L 139 257.5 L 137.5 262 Q 135 260.8 136 257 Z " /><path fill="rgb(244,111,6)" stroke="rgb(244,111,6)" stroke-width="1" opacity="0.996078431372549" d="M 71 260 Q 74.5 258.9 73 266.5 L 72 271.5 L 72.5 273 Q 68.9 270.1 70 262.5 L 71 260 Z " /><path fill="rgb(244,111,6)" stroke="rgb(244,111,6)" stroke-width="1" opacity="0.996078431372549" d="M 346 261 Q 349 260 348 263 Q 345 264 346 261 Z " /><path fill="rgb(244,111,6)" stroke="rgb(244,111,6)" stroke-width="1" opacity="0.996078431372549" d="M 326.5 262 L 327.5 264 Q 324.7 264.7 326.5 262 Z " /><path fill="rgb(244,111,6)" stroke="rgb(244,111,6)" stroke-width="1" opacity="0.996078431372549" d="M 344.5 264 L 346 267.5 L 343 268 L 342 275.5 L 345 276.5 L 344 286.5 L 342.5 288 L 340 288 L 340 293.5 L 336 306.5 L 337 309.5 L 333 320.5 L 333 331.5 Q 335.8 333.3 334 339.5 L 331 345.5 L 332 350.5 L 330 352.5 Q 331.4 362.4 327.5 367 L 325 368.5 L 325 376.5 L 323 383.5 L 324 384.5 L 324 394.5 Q 319.3 396.5 321 404 L 318 405.5 L 317 407.5 L 320 412 L 314 409.5 L 312.5 407 L 308.5 407 L 305 409 L 307 405.5 L 303.5 404 L 301.5 405 L 289.5 399 L 288.5 401 L 286 400 L 287 397.5 L 281.5 397 L 279.5 395 L 271.5 393 L 265 394 L 264 391.5 L 265.5 392 L 271 391.5 L 259.5 388 Q 258 391.5 256.5 389 Q 253.5 389.9 255 385.5 L 252.5 385 L 240.5 383 L 236.5 379 L 232.5 377 L 228.5 377 L 223.5 374 L 221.5 375 L 219.5 375 Q 216.2 376.1 217 373.5 L 213.5 371 L 208.5 371 L 206.5 369 Q 197.6 369.9 193.5 366 L 191 367.5 L 189.5 365 Q 184.3 361 176 361 Q 177.3 357.7 172.5 359 Q 169.7 355.6 163 357 Q 164.3 354 160.5 355 Q 159.3 357.3 154.5 356 L 151.5 353 L 148.5 353 L 143.5 350 L 141.5 351 L 128.5 347 L 125.5 348 L 122.5 345 L 114.5 344 L 113 344.5 L 112.5 343 L 109.5 344 L 107 342.5 L 107.5 341 L 99.5 340 L 96.5 342 L 68.5 334 L 63.5 337 L 62 333 L 58 332 L 56.5 329 L 54 330 L 54 325 L 56.5 325 L 58.5 322 L 56 320.5 L 55 313 L 57.5 312 L 57 313.5 Q 55.5 319.5 58.5 321 L 63 308.5 L 62 306.5 L 64 300 L 67 300 Q 65.7 295.9 69 297 L 63 311.5 L 58 329.5 L 62.5 332 L 73.5 333 L 117.5 342 L 121.5 344 L 129.5 345 L 177.5 358 L 239.5 378 L 299.5 401 L 302.5 401 L 307.5 404 L 316.5 406 L 319 401.5 L 323 370.5 L 324 369.5 L 324 362.5 L 329 337.5 L 329 331.5 L 331 326.5 L 331 320.5 L 333 315.5 L 334 304.5 L 336 299.5 L 339.5 280 L 340 285 Q 342.7 286.1 342 283.5 L 343 277 Q 340.3 275.9 341 278.5 L 340 278.5 L 342 266.5 L 344.5 264 Z M 330 345 L 328 349 Q 327 353 330 352 L 330 345 Z M 328 363 L 327 366 L 328 366 L 328 363 Z " /><path fill="rgb(244,111,6)" stroke="rgb(244,111,6)" stroke-width="1" opacity="0.996078431372549" d="M 238 265 Q 241 264 240 267 L 237.5 268 L 238 266.5 L 238 265 Z " /><path fill="rgb(244,111,6)" stroke="rgb(244,111,6)" stroke-width="1" opacity="0.996078431372549" d="M 318 265 Q 320.7 263.9 320 266.5 L 318 267.5 L 318 265 Z " /><path fill="rgb(244,111,6)" stroke="rgb(244,111,6)" stroke-width="1" opacity="0.996078431372549" d="M 64.5 267 Q 67 268.2 66 272 Q 61.9 273.2 64.5 267 Z " /><path fill="rgb(244,111,6)" stroke="rgb(244,111,6)" stroke-width="1" opacity="0.996078431372549" d="M 190.5 267 L 192 270 Q 188.5 271.1 190.5 267 Z " /><path fill="rgb(244,111,6)" stroke="rgb(244,111,6)" stroke-width="1" opacity="0.996078431372549" d="M 313.5 269 Q 317.9 267.5 317 270.5 Q 315.8 273 312 272 L 313.5 269 Z " /><path fill="rgb(244,111,6)" stroke="rgb(244,111,6)" stroke-width="1" opacity="0.996078431372549" d="M 195.5 271 L 198 272 L 197 274.5 L 197.5 276 L 194 274.5 L 195.5 271 Z " /><path fill="rgb(244,111,6)" stroke="rgb(244,111,6)" stroke-width="1" opacity="0.996078431372549" d="M 203.5 274 L 206 275.5 L 204.5 279 L 201 277.5 L 203.5 274 Z " /><path fill="rgb(244,111,6)" stroke="rgb(244,111,6)" stroke-width="1" opacity="0.996078431372549" d="M 66.5 275 Q 69.5 276.6 68 282 Q 65 283.3 66 279.5 L 65 276.5 L 66.5 275 Z " /><path fill="rgb(244,111,6)" stroke="rgb(244,111,6)" stroke-width="1" opacity="0.996078431372549" d="M 314.5 275 L 318 275.5 L 314.5 276 L 314.5 275 Z " /><path fill="rgb(244,111,6)" stroke="rgb(244,111,6)" stroke-width="1" opacity="0.996078431372549" d="M 187.5 276 L 188 278.5 L 182.5 286 L 182 282.5 L 187.5 276 Z " /><path fill="rgb(244,111,6)" stroke="rgb(244,111,6)" stroke-width="1" opacity="0.996078431372549" d="M 358 279 Q 362 277.6 360 284.5 L 358 285.5 L 358 279 Z " /><path fill="rgb(244,111,6)" stroke="rgb(244,111,6)" stroke-width="1" opacity="0.996078431372549" d="M 302.5 280 Q 305 281.2 304 285 Q 299.5 286.8 301 281.5 L 302.5 280 Z " /><path fill="rgb(244,111,6)" stroke="rgb(244,111,6)" stroke-width="1" opacity="0.996078431372549" d="M 309.5 280 L 310 286 L 307 286 L 307 281 L 309.5 280 Z " /><path fill="rgb(244,111,6)" stroke="rgb(244,111,6)" stroke-width="1" opacity="0.996078431372549" d="M 193.5 281 L 194 283.5 L 192 288 Q 189.3 289.1 190 286.5 L 193.5 281 Z " /><path fill="rgb(244,111,6)" stroke="rgb(244,111,6)" stroke-width="1" opacity="0.996078431372549" d="M 289.5 282 L 292 283.5 L 292 285 L 288 285 L 289.5 282 Z " /><path fill="rgb(244,111,6)" stroke="rgb(244,111,6)" stroke-width="1" opacity="0.996078431372549" d="M 308.5 287 L 310 290 L 307 288.5 L 308.5 287 Z " /><path fill="rgb(244,111,6)" stroke="rgb(244,111,6)" stroke-width="1" opacity="0.996078431372549" d="M 154 288 Q 158.9 286.4 157 292 L 154 290.5 L 154 288 Z " /><path fill="rgb(244,111,6)" stroke="rgb(244,111,6)" stroke-width="1" opacity="0.996078431372549" d="M 293.5 288 Q 298.3 286.7 297 290 L 292 289.5 L 293.5 288 Z " /><path fill="rgb(244,111,6)" stroke="rgb(244,111,6)" stroke-width="1" opacity="0.996078431372549" d="M 146 289 Q 148.7 287.9 148 290.5 Q 150.8 291.6 150 295 L 146 292.5 L 146 289 Z " /><path fill="rgb(244,111,6)" stroke="rgb(244,111,6)" stroke-width="1" opacity="0.996078431372549" d="M 64.5 291 L 65 293.5 L 64 293.5 L 64.5 291 Z " /><path fill="rgb(244,111,6)" stroke="rgb(244,111,6)" stroke-width="1" opacity="0.996078431372549" d="M 301.5 291 Q 305.7 289.9 304 294 L 299 295 Q 297.5 291.3 300.5 292 L 301.5 291 Z " /><path fill="rgb(244,111,6)" stroke="rgb(244,111,6)" stroke-width="1" opacity="0.996078431372549" d="M 288 292 L 291 293.5 L 290 296 Q 286.3 297.2 288 292 Z " /><path fill="rgb(244,111,6)" stroke="rgb(244,111,6)" stroke-width="1" opacity="0.996078431372549" d="M 354.5 292 L 356 295.5 L 354.5 298 L 352 293 L 354.5 292 Z " /><path fill="rgb(244,111,6)" stroke="rgb(244,111,6)" stroke-width="1" opacity="0.996078431372549" d="M 258.5 296 L 261 297.5 L 258.5 299 Q 255.5 297.5 258.5 296 Z " /><path fill="rgb(244,111,6)" stroke="rgb(244,111,6)" stroke-width="1" opacity="0.996078431372549" d="M 342 300 Q 345.7 298.8 344 304 Q 340.3 305.2 342 300 Z " /><path fill="rgb(244,111,6)" stroke="rgb(244,111,6)" stroke-width="1" opacity="0.996078431372549" d="M 354.5 300 L 356 304 Q 352.2 305.2 354.5 300 Z " /><path fill="rgb(244,111,6)" stroke="rgb(244,111,6)" stroke-width="1" opacity="0.996078431372549" d="M 160.5 304 L 164 304.5 L 160.5 305 L 160.5 304 Z " /><path fill="rgb(244,111,6)" stroke="rgb(244,111,6)" stroke-width="1" opacity="0.996078431372549" d="M 180 304 L 182 304.5 L 180 305.5 L 180 304 Z " /><path fill="rgb(244,111,6)" stroke="rgb(244,111,6)" stroke-width="1" opacity="0.996078431372549" d="M 254 304 Q 257.3 302.9 256 307 Q 252.7 308.1 254 304 Z " /><path fill="rgb(244,111,6)" stroke="rgb(244,111,6)" stroke-width="1" opacity="0.996078431372549" d="M 272 304 Q 275 303 274 306 Q 271 307 272 304 Z " /><path fill="rgb(244,111,6)" stroke="rgb(244,111,6)" stroke-width="1" opacity="0.996078431372549" d="M 172.5 306 Q 177.3 304.7 176 308 L 171 307.5 L 172.5 306 Z " /><path fill="rgb(244,111,6)" stroke="rgb(244,111,6)" stroke-width="1" opacity="0.996078431372549" d="M 246 307 L 250 309.5 L 251 313.5 L 249.5 317 L 246 307 Z " /><path fill="rgb(244,111,6)" stroke="rgb(244,111,6)" stroke-width="1" opacity="0.996078431372549" d="M 38 316 Q 41.7 314.8 40 320 Q 36.3 321.2 38 316 Z " /><path fill="rgb(244,111,6)" stroke="rgb(244,111,6)" stroke-width="1" opacity="0.996078431372549" d="M 48.5 316 L 50 316.5 L 50 324 Q 47 325.3 48 321.5 L 47 317.5 L 48.5 316 Z " /><path fill="rgb(244,111,6)" stroke="rgb(244,111,6)" stroke-width="1" opacity="0.996078431372549" d="M 42 324 L 44 324.5 L 44 335 L 41.5 336 L 41 334.5 L 42 333.5 L 42 324 Z " /><path fill="rgb(244,111,6)" stroke="rgb(244,111,6)" stroke-width="1" opacity="0.996078431372549" d="M 50.5 329 L 52 332 L 49.5 333 L 49 330.5 L 50.5 329 Z " /><path fill="rgb(244,111,6)" stroke="rgb(244,111,6)" stroke-width="1" opacity="0.996078431372549" d="M 56 334 Q 59.8 332.5 59 335.5 Q 57.5 338.5 56 335.5 L 56 334 Z " /><path fill="rgb(244,111,6)" stroke="rgb(244,111,6)" stroke-width="1" opacity="0.996078431372549" d="M 28 346 Q 31 344.8 30 348.5 L 29 351 L 26 350.5 L 28 346 Z " /><path fill="rgb(244,111,6)" stroke="rgb(244,111,6)" stroke-width="1" opacity="0.996078431372549" d="M 120.5 347 L 121.5 349 L 115.5 350 L 116.5 348 L 120.5 347 Z " /><path fill="rgb(244,111,6)" stroke="rgb(244,111,6)" stroke-width="1" opacity="0.996078431372549" d="M 59.5 352 L 64 352.5 L 61.5 354 L 59.5 352 Z " /><path fill="rgb(244,111,6)" stroke="rgb(244,111,6)" stroke-width="1" opacity="0.996078431372549" d="M 110.5 352 L 111 354 L 108 353.5 L 110.5 352 Z " /><path fill="rgb(244,111,6)" stroke="rgb(244,111,6)" stroke-width="1" opacity="0.996078431372549" d="M 333.5 353 L 334 355.5 L 333 355.5 L 333.5 353 Z " /><path fill="rgb(244,111,6)" stroke="rgb(244,111,6)" stroke-width="1" opacity="0.996078431372549" d="M 69 354 Q 73.6 352.8 75 355.5 Q 73.8 358.3 68.5 357 L 69 355.5 L 69 354 Z " /><path fill="rgb(244,111,6)" stroke="rgb(244,111,6)" stroke-width="1" opacity="0.996078431372549" d="M 80.5 355 L 83 355.5 L 80.5 356 L 80.5 355 Z " /><path fill="rgb(244,111,6)" stroke="rgb(244,111,6)" stroke-width="1" opacity="0.996078431372549" d="M 106.5 358 L 111 359 Q 112.3 362.7 106.5 361 Q 103.5 359.5 106.5 358 Z " /><path fill="rgb(244,111,6)" stroke="rgb(244,111,6)" stroke-width="1" opacity="0.996078431372549" d="M 164 360 Q 168.6 358.8 170 361.5 L 163 364 L 164 360 Z " /><path fill="rgb(244,111,6)" stroke="rgb(244,111,6)" stroke-width="1" opacity="0.996078431372549" d="M 173 364 Q 177.1 362.7 176 366 Q 171.9 367.3 173 364 Z " /><path fill="rgb(244,111,6)" stroke="rgb(244,111,6)" stroke-width="1" opacity="0.996078431372549" d="M 136 368 L 139 369.5 L 135.5 371 L 136 369.5 L 136 368 Z " /><path fill="rgb(244,111,6)" stroke="rgb(244,111,6)" stroke-width="1" opacity="0.996078431372549" d="M 144 368 Q 147.8 366.5 147 369.5 Q 145.5 372.5 144 369.5 L 144 368 Z " /><path fill="rgb(244,111,6)" stroke="rgb(244,111,6)" stroke-width="1" opacity="0.996078431372549" d="M 338 368 Q 342.5 366.3 341 371.5 L 340 376 L 338 375.5 L 338 368 Z " /><path fill="rgb(244,111,6)" stroke="rgb(244,111,6)" stroke-width="1" opacity="0.996078431372549" d="M 152.5 372 L 156 373.5 L 152.5 375 Q 149.5 373.5 152.5 372 Z " /><path fill="rgb(244,111,6)" stroke="rgb(244,111,6)" stroke-width="1" opacity="0.996078431372549" d="M 161.5 372 Q 166.3 370.7 165 374 Q 160.8 374 161.5 372 Z " /><path fill="rgb(244,111,6)" stroke="rgb(244,111,6)" stroke-width="1" opacity="0.996078431372549" d="M 222.5 377 L 225 377.5 L 222.5 381 L 212 382 Q 210.6 378 217.5 380 L 222.5 377 Z " /><path fill="rgb(244,111,6)" stroke="rgb(244,111,6)" stroke-width="1" opacity="0.996078431372549" d="M 227.5 378 L 230 378.5 L 228.5 381 Q 225.2 382.1 226 379.5 L 227.5 378 Z " /><path fill="rgb(244,111,6)" stroke="rgb(244,111,6)" stroke-width="1" opacity="0.996078431372549" d="M 208 383 L 215 384.5 Q 214.3 386.8 210.5 386 L 208 385 L 208 383 Z " /><path fill="rgb(244,111,6)" stroke="rgb(244,111,6)" stroke-width="1" opacity="0.996078431372549" d="M 64.5 389 L 84.5 391 L 89.5 393 L 96.5 393 L 114.5 397 L 125.5 398 L 135.5 401 L 160.5 405 L 209.5 417 L 212.5 419 L 216.5 419 L 238.5 426 L 249.5 428 L 256.5 431 L 290.5 440 L 302.5 445 L 312.5 447 L 327.5 453 L 331 456.5 Q 333.7 459.8 333 466.5 L 330 473 L 322.5 477 L 315.5 477 L 256.5 458 L 223 449.5 L 226.5 448 L 232 449 L 232 451 L 240.5 451 L 241 453 L 243.5 453 L 256.5 457 L 262 457 L 263.5 460 L 266.5 461 L 272.5 459 L 276 460 Q 274.9 462.7 277.5 462 Q 279.3 466.5 286 465 Q 285 468 288 467 L 289.5 464 L 290 467 L 301 469.5 L 300.5 471 L 308.5 472 L 311.5 475 L 317 475 Q 315.9 472.3 318.5 473 L 321.5 471 Q 324.5 472.5 321.5 474 Q 318.9 473.3 320 476 L 327 474 L 326 467.5 L 328 466.5 Q 326.9 470.7 331 469 L 331 465 L 329.5 465 L 326 463.5 L 327.5 461 L 331 462 Q 333.1 456.8 328.5 458 Q 327.3 460.3 326 457.5 Q 326.8 453.8 324.5 453 Q 321.3 450.7 314.5 452 Q 311.5 447 304 448 L 303.5 446 L 301.5 447 L 293.5 443 L 293 445 L 289.5 446 L 285 443.5 L 288 441.5 Q 287.3 439.3 283.5 440 L 277.5 443 L 276 439 Q 272.1 441.9 263.5 441 L 261 439.5 L 272 439 L 270.5 436 L 263.5 434 L 256.5 434 Q 255 429.8 249 431 Q 250.4 427 243.5 429 L 232.5 425 L 224 425 Q 225.1 421.5 217.5 423 L 215.5 423 L 214 422.5 L 215.5 422 Q 216.8 424.3 218 421.5 L 212.5 420 L 207.5 421 L 204.5 420 Q 200.8 420.8 200 418.5 Q 200.8 415.9 197.5 417 L 182.5 412 L 180.5 412 L 171 411 Q 172.3 408 168.5 409 L 164.5 408 L 159.5 410 L 158.5 407 L 153.5 408 L 152.5 406 L 151.5 408 L 151 406.5 L 151.5 405 L 145.5 403 Q 144.3 405.3 139.5 404 L 134.5 402 L 129.5 402 L 120.5 399 Q 114.2 400.7 112.5 398 L 112 400 Q 107.9 401.3 109 398 L 111 397.5 L 100.5 397 L 96.5 395 L 93.5 396 L 78.5 392 L 68.5 392 L 67.5 391 L 64.5 392 L 62.5 391 L 59.5 392 L 57.5 392 L 53 396.5 L 53.5 398 L 52 397.5 Q 52.8 399.8 50.5 399 L 51 400.5 L 53 404.5 L 52 407.5 L 53.5 410 Q 56.3 408.8 54 407.5 Q 52.8 403.8 56.5 405 L 58 407.5 L 55 409 Q 53.6 413 60.5 411 L 62.5 412 L 64 411.5 L 64.5 415 L 75.5 415 L 84.5 418 L 91 416 L 90 418.5 L 96 420 Q 94.6 416 101.5 418 L 104 419 Q 102.8 422 106.5 421 L 111.5 422 L 115.5 421 L 119.5 425 Q 125 423.5 126.5 426 L 129.5 425 Q 132.2 427.8 138.5 427 L 144 426 Q 145.3 429.7 139.5 428 L 139.5 429 L 145.5 431 L 147.5 430 Q 149 432.5 154.5 431 L 157 433.5 L 154.5 434 L 126.5 427 L 111.5 425 L 96.5 421 L 91.5 421 L 86.5 419 L 67.5 417 L 54.5 412 L 51 408.5 Q 48 405.5 48 399.5 L 54.5 392 L 64.5 389 Z M 279 439 L 279 440 L 282 440 L 279 439 Z " /><path fill="rgb(244,111,6)" stroke="rgb(244,111,6)" stroke-width="1" opacity="0.996078431372549" d="M 57 394 L 62 394 L 62 395.5 Q 58.9 397.3 60.5 399 L 58 400.5 Q 58.8 402.8 56.5 402 Q 52.7 399.7 58 397.5 L 57 394 Z " /><path fill="rgb(244,111,6)" stroke="rgb(244,111,6)" stroke-width="1" opacity="0.996078431372549" d="M 338.5 396 L 339 398.5 L 338 398.5 L 338.5 396 Z " /><path fill="rgb(244,111,6)" stroke="rgb(244,111,6)" stroke-width="1" opacity="0.996078431372549" d="M 276.5 397 L 279 397.5 L 276.5 398 L 276.5 397 Z " /><path fill="rgb(244,111,6)" stroke="rgb(244,111,6)" stroke-width="1" opacity="0.996078431372549" d="M 100.5 398 Q 102.8 397.3 102 399.5 L 100.5 398 Z " /><path fill="rgb(244,111,6)" stroke="rgb(244,111,6)" stroke-width="1" opacity="0.996078431372549" d="M 106.5 398 L 107.5 400 Q 104.7 400.7 106.5 398 Z " /><path fill="rgb(244,111,6)" stroke="rgb(244,111,6)" stroke-width="1" opacity="0.996078431372549" d="M 250 402 L 252 402.5 L 250 403.5 L 250 402 Z " /><path fill="rgb(244,111,6)" stroke="rgb(244,111,6)" stroke-width="1" opacity="0.996078431372549" d="M 61 403 Q 65.5 401.3 64 406.5 L 61 404.5 L 61 403 Z " /><path fill="rgb(244,111,6)" stroke="rgb(244,111,6)" stroke-width="1" opacity="0.996078431372549" d="M 258.5 404 L 261 405.5 L 258.5 406 L 257 405.5 L 258.5 404 Z " /><path fill="rgb(244,111,6)" stroke="rgb(244,111,6)" stroke-width="1" opacity="0.996078431372549" d="M 338 405 Q 342.5 403.5 341 408 L 338 406.5 L 338 405 Z " /><path fill="rgb(244,111,6)" stroke="rgb(244,111,6)" stroke-width="1" opacity="0.996078431372549" d="M 128 406 L 135 408.5 L 128 409 L 128 406 Z " /><path fill="rgb(244,111,6)" stroke="rgb(244,111,6)" stroke-width="1" opacity="0.996078431372549" d="M 145.5 406 L 149 407.5 L 147.5 408 L 145.5 406 Z " /><path fill="rgb(244,111,6)" stroke="rgb(244,111,6)" stroke-width="1" opacity="0.996078431372549" d="M 140.5 408 L 147 410 L 145.5 413 L 139 409.5 L 140.5 408 Z " /><path fill="rgb(244,111,6)" stroke="rgb(244,111,6)" stroke-width="1" opacity="0.996078431372549" d="M 295 408 L 303 411 L 302.5 413 L 297.5 412 L 295 409.5 L 295 408 Z " /><path fill="rgb(244,111,6)" stroke="rgb(244,111,6)" stroke-width="1" opacity="0.996078431372549" d="M 167.5 411 L 171 412.5 Q 169.4 415.5 164 414 Q 162.8 411 166.5 412 L 167.5 411 Z " /><path fill="rgb(244,111,6)" stroke="rgb(244,111,6)" stroke-width="1" opacity="0.996078431372549" d="M 308 413 Q 311.8 412.3 313 415.5 L 308 416 L 308 413 Z " /><path fill="rgb(244,111,6)" stroke="rgb(244,111,6)" stroke-width="1" opacity="0.996078431372549" d="M 336.5 414 Q 338.8 413.3 338 415.5 L 336.5 414 Z " /><path fill="rgb(244,111,6)" stroke="rgb(244,111,6)" stroke-width="1" opacity="0.996078431372549" d="M 112.5 416 Q 118.5 414.5 120 417.5 L 117.5 418 L 112.5 417 L 112.5 416 Z " /><path fill="rgb(244,111,6)" stroke="rgb(244,111,6)" stroke-width="1" opacity="0.996078431372549" d="M 330.5 419 L 334 420.5 Q 328.3 420.8 326 424.5 L 324.5 430 L 323 426.5 L 330.5 419 Z " /><path fill="rgb(244,111,6)" stroke="rgb(244,111,6)" stroke-width="1" opacity="0.996078431372549" d="M 126.5 420 L 127.5 422 Q 124.7 422.7 126.5 420 Z " /><path fill="rgb(244,111,6)" stroke="rgb(244,111,6)" stroke-width="1" opacity="0.996078431372549" d="M 138.5 420 L 144 420.5 Q 142.8 423.2 141.5 421 Q 137.5 421.8 138.5 420 Z " /><path fill="rgb(244,111,6)" stroke="rgb(244,111,6)" stroke-width="1" opacity="0.996078431372549" d="M 300.5 421 L 304 421.5 L 300.5 422 L 300.5 421 Z " /><path fill="rgb(244,111,6)" stroke="rgb(244,111,6)" stroke-width="1" opacity="0.996078431372549" d="M 225.5 426 L 226.5 428 L 224 427.5 L 225.5 426 Z " /><path fill="rgb(244,111,6)" stroke="rgb(244,111,6)" stroke-width="1" opacity="0.996078431372549" d="M 222.5 427 L 221.5 429 L 212 430 L 212.5 428 L 221.5 428 L 222.5 427 Z " /><path fill="rgb(244,111,6)" stroke="rgb(244,111,6)" stroke-width="1" opacity="0.996078431372549" d="M 168.5 432 L 176.5 432 L 177 433.5 L 177.5 435 L 168.5 433 L 168.5 432 Z " /><path fill="rgb(244,111,6)" stroke="rgb(244,111,6)" stroke-width="1" opacity="0.996078431372549" d="M 161.5 433 L 168.5 436 L 174.5 436 L 182.5 439 L 190.5 439 L 198.5 443 L 203.5 443 L 207.5 442 L 211.5 444 Q 216.8 442.8 218 445.5 Q 217.2 448.1 220.5 447 L 221.5 449 L 158 434.5 L 161.5 433 Z " /><path fill="rgb(244,111,6)" stroke="rgb(244,111,6)" stroke-width="1" opacity="0.996078431372549" d="M 185.5 434 Q 187.8 433.3 187 435.5 L 188 438 L 183 437 Q 181.9 434.3 184.5 435 L 185.5 434 Z " /><path fill="rgb(244,111,6)" stroke="rgb(244,111,6)" stroke-width="1" opacity="0.996078431372549" d="M 210.5 436 L 216 436.5 Q 214.7 439.2 213.5 437 Q 209.5 437.7 210.5 436 Z " /><path fill="rgb(244,111,6)" stroke="rgb(244,111,6)" stroke-width="1" opacity="0.996078431372549" d="M 199.5 437 Q 205.3 435.3 204 439 Q 199.3 440 199.5 437 Z " /><path fill="rgb(244,111,6)" stroke="rgb(244,111,6)" stroke-width="1" opacity="0.996078431372549" d="M 275 444 L 279 444.5 L 275 446 L 275 444 Z " /><path fill="rgb(244,111,6)" stroke="rgb(244,111,6)" stroke-width="1" opacity="0.996078431372549" d="M 270.5 446 L 271.5 448 L 269 447.5 L 270.5 446 Z " /><path fill="rgb(244,111,6)" stroke="rgb(244,111,6)" stroke-width="1" opacity="0.996078431372549" d="M 259 450 L 266.5 450 L 268 451.5 L 259 452 L 259 450 Z " /><path fill="rgb(244,111,6)" stroke="rgb(244,111,6)" stroke-width="1" opacity="0.996078431372549" d="M 320 455 L 323 456.5 Q 323.8 459.1 320.5 458 Q 319.5 461 314.5 460 L 315.5 458 L 317.5 458 L 320 456.5 L 320 455 Z " /><path fill="rgb(244,111,6)" stroke="rgb(244,111,6)" stroke-width="1" opacity="0.996078431372549" d="M 263 456 L 266 456.5 L 263.5 458 L 263 456 Z " /><path fill="rgb(244,111,6)" stroke="rgb(244,111,6)" stroke-width="1" opacity="0.996078431372549" d="M 321.5 463 L 322 465.5 L 320 466.5 L 321.5 463 Z " /><path fill="rgb(244,111,6)" stroke="rgb(244,111,6)" stroke-width="1" opacity="0.996078431372549" d="M 304 466 L 309 466.5 Q 307.8 469 304 468 L 304 466 Z " /><path fill="rgb(244,111,6)" stroke="rgb(244,111,6)" stroke-width="1" opacity="0.996078431372549" d="M 316.5 468 L 320 468.5 L 316.5 469 L 316.5 468 Z " /></svg>