<svg width="432" height="578" version="1.1" xmlns="http://www.w3.org/2000/svg" desc="Created with imagetracer.js version 1.2.6" ><path fill="rgb(242,116,11)" stroke="rgb(242,116,11)" stroke-width="1" opacity="0.9333333333333333" d="M 358.5 14 L 382.5 14 L 387.5 15 L 395 19 L 400 29.5 L 400 38.5 L 395.5 45 Q 392.2 46.1 393 43.5 L 392 40.5 L 393 37.5 L 392 32.5 L 386.5 27 L 383.5 25 L 371.5 25 L 364 30.5 L 356 47.5 L 356 50.5 L 347 72.5 L 340 104.5 L 339 122.5 L 337 125.5 L 337 227.5 L 333 239.5 L 335 244.5 L 335 254.5 L 336 255.5 L 337 328.5 L 338 329.5 L 338 331.5 L 338 351.5 L 339 352.5 L 340 381.5 L 347 405.5 L 351.5 410 L 353.5 411 L 366.5 411 Q 386.7 404.2 398 388.5 Q 405.2 381.2 407 368.5 Q 404 365.3 405 359 Q 414.2 357.4 417 363.5 L 419 373.5 L 417 383.5 L 408 406.5 L 399 419.5 L 385.5 433 Q 372.3 443.8 355.5 451 L 344.5 454 L 332.5 454 L 323.5 452 Q 316.2 460.7 304.5 465 Q 297.8 467.3 287.5 466 Q 272.1 462.4 264 451.5 L 260 443.5 L 260 438.5 L 264 430 L 268.5 428 L 271 433.5 L 275.5 438 L 284.5 438 L 294 431.5 L 297 424.5 L 297 420.5 L 289 409.5 L 289 362.5 L 290 361.5 L 291 241.5 L 288.5 240 L 269.5 244 L 262.5 244 L 254 237.5 Q 253.4 234.8 259.5 236 Q 266.9 234.9 270 229.5 L 272 226.5 L 282 210.5 L 288 192.5 L 288 185.5 L 291 174.5 L 291 161.5 L 292 160.5 L 292 149.5 L 293 148.5 L 293 115.5 L 291.5 108 L 273 122 L 271.5 125 Q 269.3 124.3 270 126.5 L 267 128 L 249 153.5 L 242 172.5 L 244 182.5 L 245.5 184 L 259.5 180 Q 267.8 186.8 265 204.5 L 263 211.5 L 252.5 224 L 245 229.5 L 245 245.5 L 244 246.5 L 244 292.5 L 243 293.5 L 243 341.5 L 242 342.5 L 243 343.5 L 243 351.5 L 242 352.5 L 242 466.5 L 245.5 472 L 251.5 473 L 254 470.5 Q 252.8 464.3 256.5 463 Q 262.7 462.3 264 466.5 L 266 477.5 L 263 488.5 L 258 496 Q 255.3 494.9 256 497.5 L 241.5 508 L 225.5 508 L 213 502 L 211 507.5 L 202 520 L 199 521.5 Q 199.8 523.8 197.5 523 L 196 526 L 173.5 539 L 158.5 544 L 148.5 545 L 138.5 543 L 128.5 543 L 119.5 546 Q 113.7 551.7 104.5 554 L 91.5 554 L 79.5 551 L 74.5 551 L 58.5 545 Q 40.3 536.7 28 522.5 L 18 506.5 L 15 491.5 L 18 480.5 L 25.5 471 L 28 472.5 L 25 478.5 L 24 492.5 L 29.5 502 Q 37.7 509.8 49.5 514 L 60.5 516 L 71.5 516 L 77.5 514 L 82.5 514 L 91.5 510 L 107 496.5 L 113 486.5 L 113 483.5 L 116 477.5 L 118 458.5 L 117 457.5 L 116 444.5 L 113 438.5 L 104.5 429 L 93 422.5 L 92 417.5 Q 93.6 410.6 98.5 407 L 103.5 405 L 114.5 405 L 119 406 L 119 356.5 L 118 355.5 L 118 336.5 L 117 335.5 L 116 282.5 L 113 271.5 L 110 267.5 L 110 264.5 L 107 258.5 L 98.5 250 Q 95.5 250.9 97 246.5 Q 99.3 242.3 106.5 243 L 115.5 250 L 116 230.5 L 115 229.5 L 114 166.5 L 113 165.5 L 113 152.5 L 110 142.5 L 110 137.5 Q 104.6 117.4 90.5 106 L 81.5 101 L 65.5 100 L 54.5 104 L 46 110 L 44.5 113 Q 42.3 112.3 43 114.5 L 40 116 L 34 125.5 Q 34.6 131.6 31 133.5 L 30 143.5 L 33.5 148 L 41.5 149 L 43 150.5 Q 43.8 154.3 41.5 155 L 33.5 157 L 28 155 L 22 142.5 L 21 127.5 L 25 112.5 L 31 101.5 L 39 91 Q 41.7 92.1 41 89.5 L 49 84 L 49 82 L 52 82 Q 50.9 79.3 53.5 80 L 65.5 73 L 75.5 70 Q 83.8 71.2 88.5 69 L 89.5 70 L 100.5 70 L 107.5 73 L 116 74 L 122 64 L 125 62.5 Q 124.3 60.3 126.5 61 Q 134.1 52.1 147.5 49 L 151.5 48 L 172.5 48 L 185.5 52 L 196 61.5 L 199 67.5 L 199 75.5 L 195.5 77 L 189.5 73 L 184.5 72 Q 175.6 74.1 171 80.5 L 166 91.5 L 163 103.5 L 162 121.5 L 160 131.5 L 160 192.5 L 161 193.5 L 163 217.5 L 166 228.5 L 166 233.5 L 172 249.5 L 181 264 L 190 269 L 191 274.5 L 188.5 278 L 180.5 281 L 168.5 281 L 166 282 L 166 334.5 L 165 335.5 L 165 371.5 L 164 372.5 L 164 442.5 Q 161.3 444.3 163 450.5 L 160 454.5 L 160 466.5 L 166 475.5 L 167 480.5 Q 166.5 483.5 162.5 483 L 158.5 481 L 154 484.5 Q 153.5 489.5 157.5 490 L 159.5 491 L 170.5 491 Q 181.4 488.4 187 480.5 L 193 470.5 L 194 456.5 Q 193.1 449.9 188.5 447 Q 182.3 446.3 180 449.5 L 181 459 Q 173 458.1 169 452.5 L 168 441.5 Q 170.6 430.6 178.5 425 Q 182.3 420.8 191.5 422 L 199 425 L 199 369.5 L 196 359.5 L 195 350.5 L 190.5 345 L 187.5 345 Q 185.6 348.6 181 348 Q 179 345 180 337.5 L 185.5 331 Q 190.3 326.5 200 328 L 200 171.5 L 198.5 170 Q 181.7 167.3 173 156.5 L 168 147.5 L 167 139.5 L 169.5 136 L 181.5 137 L 185.5 136 L 200.5 127 L 233 103 Q 231.9 100.3 234.5 101 L 248 90 Q 246.9 87.3 249.5 88 L 257 82 Q 255.9 79.3 258.5 80 L 279 62.5 Q 278.3 60.3 280.5 61 Q 299.9 41.9 323.5 27 L 342.5 18 L 358.5 14 Z " /><path fill="rgb(0,0,0)" stroke="rgb(0,0,0)" stroke-width="1" opacity="0" d="M 0 0 L 432 0 L 432 578 L 0 578 L 0 0 Z M 359 14 L 343 18 L 324 27 Q 300 42 281 61 Q 278 60 279 63 L 259 80 Q 256 79 257 82 L 250 88 Q 247 87 248 90 L 235 101 Q 232 100 233 103 L 201 127 L 186 136 L 182 137 L 170 136 L 167 140 L 168 148 L 173 157 Q 182 167 199 170 L 200 172 L 200 328 Q 190 327 186 331 L 180 338 Q 179 345 181 348 Q 186 349 188 345 L 191 345 L 195 351 L 196 360 L 199 370 L 199 425 L 192 422 Q 182 421 179 425 Q 171 431 168 442 L 169 453 Q 173 458 181 459 L 180 450 Q 182 446 189 447 Q 193 450 194 457 L 193 471 L 187 481 Q 181 488 171 491 L 160 491 L 158 490 Q 154 490 154 485 L 159 481 L 163 483 Q 166 483 167 481 L 166 476 L 160 467 L 160 455 L 163 451 Q 161 444 164 443 L 164 373 L 165 372 L 165 336 L 166 335 L 166 282 L 169 281 L 181 281 L 189 278 L 191 275 L 190 269 L 181 264 L 172 250 L 166 234 L 166 229 L 163 218 L 161 194 L 160 193 L 160 132 L 162 122 L 163 104 L 166 92 L 171 81 Q 176 74 185 72 L 190 73 L 196 77 L 199 76 L 199 68 L 196 62 L 186 52 L 173 48 L 152 48 L 148 49 Q 134 52 127 61 Q 124 60 125 63 L 122 64 L 116 74 L 108 73 L 101 70 L 90 70 L 89 69 Q 84 71 76 70 L 66 73 L 54 80 Q 51 79 52 82 L 49 82 L 49 84 L 41 90 Q 42 92 39 91 L 31 102 L 25 113 L 21 128 L 22 143 L 28 155 L 34 157 L 42 155 Q 44 154 43 151 L 42 149 L 34 148 L 30 144 L 31 134 Q 35 132 34 126 L 40 116 L 43 115 Q 42 112 45 113 L 46 110 L 55 104 L 66 100 L 82 101 L 91 106 Q 105 117 110 138 L 110 143 L 113 153 L 113 166 L 114 167 L 115 230 L 116 231 L 116 250 L 107 243 Q 99 242 97 247 Q 95 251 99 250 L 107 259 L 110 265 L 110 268 L 113 272 L 116 283 L 117 336 L 118 337 L 118 356 L 119 357 L 119 406 L 115 405 L 104 405 L 99 407 Q 94 411 92 418 L 93 423 L 105 429 L 113 439 L 116 445 L 117 458 L 118 459 L 116 478 L 113 484 L 113 487 L 107 497 L 92 510 L 83 514 L 78 514 L 72 516 L 61 516 L 50 514 Q 38 510 30 502 L 24 493 L 25 479 L 28 473 L 26 471 L 18 481 L 15 492 L 18 507 L 28 523 Q 40 537 59 545 L 75 551 L 80 551 L 92 554 L 105 554 Q 114 552 120 546 L 129 543 L 139 543 L 149 545 L 159 544 L 174 539 L 196 526 L 198 523 Q 200 524 199 522 L 202 520 L 211 508 L 213 502 L 226 508 L 242 508 L 256 498 Q 255 495 258 496 L 263 489 L 266 478 L 264 467 Q 263 462 257 463 Q 253 464 254 471 L 252 473 L 246 472 L 242 467 L 242 353 L 243 352 L 243 344 L 242 343 L 243 342 L 243 294 L 244 293 L 244 247 L 245 246 L 245 230 L 253 224 L 263 212 L 265 205 Q 268 187 260 180 L 246 184 L 244 183 L 242 173 L 249 154 L 267 128 L 270 127 Q 269 124 272 125 L 273 122 L 292 108 L 293 116 L 293 149 L 292 150 L 292 161 L 291 162 L 291 175 L 288 186 L 288 193 L 282 211 L 272 227 L 270 230 Q 267 235 260 236 Q 253 235 254 238 L 263 244 L 270 244 L 289 240 L 291 242 L 290 362 L 289 363 L 289 410 L 297 421 L 297 425 L 294 432 L 285 438 L 276 438 L 271 434 L 269 428 L 264 430 L 260 439 L 260 444 L 264 452 Q 272 462 288 466 Q 298 467 305 465 Q 316 461 324 452 L 333 454 L 345 454 L 356 451 Q 372 444 386 433 L 399 420 L 408 407 L 417 384 L 419 374 L 417 364 Q 414 357 405 359 Q 404 365 407 369 Q 405 381 398 389 Q 387 404 367 411 L 354 411 L 352 410 L 347 406 L 340 382 L 339 353 L 338 352 L 338 332 L 338 330 L 337 329 L 336 256 L 335 255 L 335 245 L 333 240 L 337 228 L 337 126 L 339 123 L 340 105 L 347 73 L 356 51 L 356 48 L 364 31 L 372 25 L 384 25 L 387 27 L 392 33 L 393 38 L 392 41 L 393 44 Q 392 46 396 45 L 400 39 L 400 30 L 395 19 L 388 15 L 383 14 L 359 14 Z " /></svg>